<?xml version="1.0" standalone="no"?>
<!DOCTYPE svg PUBLIC "-//W3C//DTD SVG 20010904//EN"
 "http://www.w3.org/TR/2001/REC-SVG-20010904/DTD/svg10.dtd">
<svg version="1.0" xmlns="http://www.w3.org/2000/svg"
 width="733.000000pt" height="550.000000pt" viewBox="0 0 733.000000 550.000000"
 preserveAspectRatio="xMidYMid meet">

<g transform="translate(0.000000,550.000000) scale(0.100000,-0.100000)"
fill="#000000" stroke="none">
<path d="M0 4551 c0 -522 3 -956 6 -965 9 -23 26 -20 19 4 -3 11 -2 20 4 20
11 0 26 -39 18 -47 -8 -7 16 -32 25 -26 5 2 8 -5 8 -16 0 -12 4 -21 9 -21 9 0
76 -103 121 -185 37 -67 -4 -17 -85 105 -42 63 -87 121 -101 128 l-25 13 4
-288 c5 -274 9 -347 27 -473 l8 -55 2 60 c2 50 4 55 10 30 7 -28 8 -29 9 -4 0
14 -4 30 -10 36 -5 5 -9 31 -7 56 2 38 6 45 18 37 11 -7 15 -35 18 -113 l4
-104 -41 -7 -41 -6 0 -276 0 -277 48 6 c26 4 160 16 297 28 138 12 252 23 254
25 2 2 -5 48 -15 103 -18 100 -18 100 -49 103 -16 2 -29 8 -27 13 2 6 10 9 17
9 8 -1 12 3 9 8 -3 5 -13 7 -21 4 -27 -11 -9 10 72 81 157 137 224 227 210
282 -4 14 -7 35 -7 47 0 17 -12 10 -67 -43 -91 -87 -280 -233 -204 -158 9 10
18 33 20 53 1 19 7 40 13 46 14 14 13 29 -2 20 -8 -5 -9 -2 -5 9 7 20 3 21
-24 7 -10 -6 -19 -9 -19 -7 0 1 45 41 100 86 105 88 151 140 151 169 1 32 -14
132 -19 132 -2 0 -25 -17 -51 -38 -45 -37 -131 -99 -161 -117 -9 -5 -7 0 4 14
15 16 20 37 20 81 1 33 0 60 -2 60 -2 0 -13 -5 -25 -11 l-22 -10 21 18 c11 10
38 32 59 48 21 17 61 48 89 71 l51 40 1 77 c1 87 14 86 -117 7 -85 -52 -122
-66 -75 -29 15 12 25 24 22 27 -4 3 1 14 11 24 15 17 15 18 0 18 -14 0 -15 5
-7 25 8 22 6 27 -13 35 -15 7 8 8 73 4 l95 -6 -3 113 c-2 63 -8 119 -13 126
-6 6 -34 15 -63 18 -93 12 -96 29 -13 85 74 51 76 97 6 115 -21 5 -30 2 -42
-15 -11 -16 -17 -18 -23 -9 -4 7 2 20 17 31 39 32 108 7 129 -47 5 -13 8 4 8
46 1 37 8 92 17 123 9 31 13 61 9 67 -4 7 -1 10 7 7 9 -3 16 -29 21 -77 3 -40
8 -74 10 -76 7 -7 549 -65 558 -60 5 3 12 0 15 -6 18 -28 -18 -29 -191 -4 -98
14 -195 28 -214 31 -19 2 -64 9 -99 15 -35 5 -65 8 -68 6 -6 -7 17 -441 25
-449 4 -3 23 -8 42 -11 33 -4 33 -4 -8 -5 l-42 -2 5 -102 c12 -215 15 -255 24
-317 6 -36 8 -68 5 -73 -3 -4 5 -8 18 -8 20 -1 21 -2 5 -11 -52 -31 13 -40 72
-10 30 16 58 20 137 19 119 0 90 -16 -33 -17 -45 -1 -84 -4 -86 -8 -3 -5 45
-8 105 -8 93 0 113 3 122 17 5 9 8 20 5 23 -8 7 -110 14 -224 15 -80 1 -88 2
-71 15 14 10 35 12 82 8 52 -5 70 -2 106 16 40 20 41 20 18 2 l-25 -21 57 0
c31 0 60 5 63 10 9 14 41 12 57 -2 7 -7 24 -14 38 -16 14 -1 20 1 13 6 -19 12
-1 76 22 80 18 3 18 3 4 -10 -9 -7 -19 -22 -21 -34 -5 -18 -1 -20 28 -19 19 0
34 -3 34 -7 0 -4 -12 -8 -27 -8 -14 0 -23 -3 -20 -7 4 -3 23 -6 42 -5 19 1 45
-3 57 -8 19 -7 16 -9 -22 -11 l-45 -2 48 -6 c59 -9 125 -2 106 10 -9 5 9 9 46
9 62 0 200 34 270 65 40 19 40 19 12 23 -15 2 -65 -3 -110 -12 -45 -8 -89 -15
-97 -15 -8 -1 -26 -2 -39 -3 -32 -4 -53 29 -28 43 25 15 21 30 -5 19 -22 -9
-180 -30 -186 -25 -2 2 5 11 15 21 17 17 17 18 -2 9 -24 -10 -147 -24 -158
-17 -5 2 -6 10 -3 18 6 17 -15 19 -31 3 -6 -6 -41 -14 -76 -18 -60 -6 -65 -5
-56 11 8 14 4 18 -25 23 -19 4 -43 2 -54 -4 -12 -6 -32 -11 -47 -11 -14 0 -37
-7 -50 -16 -31 -20 -32 -11 -3 28 l21 30 -21 -11 c-12 -7 -22 -16 -22 -21 0
-6 -4 -10 -10 -10 -16 0 -12 14 11 39 13 14 27 20 37 16 10 -3 23 2 32 12 14
18 32 18 412 8 218 -5 400 -13 404 -18 4 -4 -1 -7 -12 -8 -11 0 -14 -3 -6 -6
7 -3 20 1 28 8 11 9 17 10 23 1 4 -7 12 -8 21 -2 20 13 33 12 25 0 -8 -12 25
-13 57 -2 13 5 96 5 185 1 133 -7 169 -6 200 6 30 12 31 14 8 9 -38 -9 -245
-4 -305 6 -31 5 -36 8 -17 9 24 1 26 3 17 21 -9 17 -6 23 22 40 18 11 38 20
45 20 6 0 19 3 29 7 13 5 16 3 11 -10 -8 -22 12 -22 29 1 10 14 16 15 31 6 15
-9 30 -7 68 7 30 12 61 17 78 13 16 -3 27 -1 27 5 0 6 14 11 30 11 42 0 40
-27 -2 -33 -29 -3 -27 -4 10 -5 23 -1 42 2 42 7 0 5 27 7 59 4 45 -4 64 -2 82
11 29 20 46 21 30 2 -9 -10 6 -9 61 6 80 21 105 35 46 24 -23 -4 -38 -3 -38 3
0 5 -8 12 -17 14 -13 3 -12 5 5 6 31 1 18 21 -15 21 -21 0 -23 2 -13 15 6 8 9
19 6 24 -4 5 -2 12 4 16 26 16 -1 20 -138 20 -81 0 -151 3 -157 6 -5 4 -49 9
-97 11 -49 2 -93 10 -102 17 -11 9 -20 10 -33 2 -17 -10 -16 -10 4 -11 12 0
24 -4 27 -8 3 -4 -21 -7 -52 -5 -37 2 -59 7 -64 18 -5 8 -19 14 -31 14 -17 -1
-18 -2 -4 -6 9 -2 17 -9 17 -15 0 -5 -7 -7 -16 -4 -9 3 -25 6 -35 6 -11 0 -18
4 -15 9 6 9 -77 22 -152 23 -30 0 -50 7 -65 22 -12 11 -28 21 -34 21 -7 0 -13
4 -12 9 1 12 -23 26 -34 19 -4 -2 -3 -11 4 -19 7 -8 7 -14 1 -14 -14 0 -25 34
-13 38 21 7 11 20 -19 27 -16 4 -82 12 -145 19 -93 10 -119 10 -133 0 -21 -16
-19 -16 106 -40 52 -9 88 -20 82 -24 -7 -4 -28 -4 -49 1 -44 10 -105 17 -147
18 -19 1 -34 7 -38 17 -3 8 -2 13 3 9 5 -3 20 9 32 27 13 18 27 35 31 36 4 2
8 10 8 17 0 8 9 19 19 25 11 5 32 28 48 50 53 74 176 221 181 215 3 -3 -2 -13
-11 -23 -18 -20 -22 -48 -9 -56 5 -3 31 -8 58 -11 27 -3 67 -8 89 -12 79 -12
91 -13 153 -19 60 -6 66 -4 92 21 16 15 33 24 38 21 6 -3 13 1 16 10 9 23 8
24 -14 24 -21 0 -27 15 -10 25 5 3 10 1 10 -6 0 -8 13 -10 39 -6 26 3 41 1 44
-7 3 -7 27 -13 53 -15 27 -1 67 -6 89 -11 25 -6 41 -6 43 1 2 5 9 6 15 2 6 -3
42 -7 81 -8 77 -1 120 -11 111 -25 -3 -5 16 -7 45 -3 37 4 50 2 50 -7 0 -10 4
-9 17 1 15 13 13 15 -18 19 l-34 6 53 33 c40 25 50 36 42 46 -6 7 -20 13 -33
13 -25 0 -124 23 -207 47 -30 9 -67 14 -82 12 -21 -3 -25 0 -19 11 15 26 156
132 176 131 17 0 17 -2 -4 -10 -14 -5 -45 -27 -70 -47 -24 -20 -49 -40 -55
-44 -27 -18 30 -37 191 -63 l173 -28 40 27 c22 14 42 26 45 26 3 0 22 11 42
24 l36 25 -24 10 c-13 5 -44 14 -69 19 l-45 10 55 -5 c30 -3 72 -12 94 -19 48
-17 64 -18 49 -3 -6 6 -77 24 -159 40 -133 27 -179 39 -145 39 18 0 304 -60
309 -65 2 -2 9 0 16 5 61 50 76 60 92 60 46 1 -24 20 -251 69 -132 28 -256 56
-275 61 -99 26 -533 119 -540 115 -3 -2 -20 -23 -36 -47 -16 -24 -47 -63 -70
-88 -78 -84 -96 -110 -91 -130 3 -12 0 -17 -8 -14 -18 7 -107 -96 -102 -117 3
-12 -2 -19 -16 -21 -11 -2 -22 -8 -24 -14 -2 -7 21 -13 64 -17 100 -8 283 -38
283 -46 0 -4 -46 1 -102 11 -57 9 -140 20 -185 24 -46 4 -83 11 -83 16 0 5 42
59 93 121 232 280 266 322 259 328 -4 3 -63 18 -131 33 -216 47 -302 68 -298
72 2 2 147 -27 323 -66 175 -39 360 -79 409 -90 50 -11 234 -51 410 -90 176
-38 372 -81 435 -94 243 -54 577 -125 613 -132 21 -3 36 -9 33 -11 -2 -3 -39
2 -81 11 -101 21 -119 20 -160 -6 -43 -29 -44 -44 -2 -54 l32 -7 -30 -9 c-16
-5 -47 -6 -68 -3 -29 4 -56 -3 -122 -31 -111 -47 -111 -56 -1 -69 31 -4 58
-11 61 -15 9 -15 -44 -20 -91 -10 -75 17 -151 15 -181 -6 -21 -13 -24 -19 -13
-22 28 -9 70 -50 57 -55 -9 -4 -8 -8 3 -17 16 -12 20 -13 -132 11 -74 11 -79
11 -123 -12 -25 -13 -46 -28 -47 -33 -2 -5 15 -15 37 -22 39 -13 38 -14 -35
-9 -64 4 -83 1 -125 -19 l-50 -23 40 -7 c139 -25 147 -27 134 -42 -12 -15 -73
-44 -90 -44 -5 0 -9 9 -9 20 0 17 5 19 25 14 14 -3 25 -2 25 4 0 5 -17 12 -37
16 -56 9 -63 8 -57 -9 4 -9 0 -15 -7 -16 -8 0 -4 -4 9 -9 19 -8 21 -13 12 -30
-6 -11 -17 -20 -25 -20 -7 0 -22 -3 -32 -7 -16 -6 -16 -5 -4 10 12 15 11 17
-10 19 -108 8 -128 1 -71 -25 23 -10 8 -13 -103 -17 -191 -7 -165 -26 55 -41
19 -2 43 -8 53 -13 13 -8 20 -8 26 2 13 22 81 53 211 97 163 55 203 63 125 24
-33 -16 -49 -27 -35 -23 14 3 35 7 48 9 13 2 30 9 38 16 8 6 47 14 87 17 49 3
76 10 84 21 10 13 14 13 21 3 15 -22 36 12 23 36 -13 25 -5 32 30 25 24 -4 29
-2 29 13 0 15 -2 16 -9 5 -6 -9 -11 -10 -15 -3 -6 11 2 17 69 52 17 9 29 21
28 28 -4 18 27 30 102 36 78 7 88 9 128 20 15 5 30 6 33 3 8 -7 -36 -30 -60
-31 -40 -2 -24 -21 18 -21 25 0 42 3 40 7 -3 4 4 12 15 17 25 14 131 14 131 1
0 -5 -8 -10 -18 -10 -10 0 -22 -4 -27 -9 -6 -5 -27 -14 -47 -21 -42 -13 -48
-25 -18 -33 11 -3 18 -2 15 3 -3 4 4 10 15 13 13 3 18 1 13 -6 -4 -6 -1 -8 8
-5 8 3 115 37 239 77 281 90 280 90 280 111 0 10 -3 20 -7 23 -5 2 -2 2 5 0 8
-2 31 -6 53 -9 21 -4 39 -9 39 -13 0 -4 -20 -13 -44 -20 -25 -7 -52 -18 -62
-25 -14 -11 -8 -15 47 -26 35 -7 87 -18 114 -25 44 -12 46 -13 18 -14 -18 -1
-33 -4 -33 -9 0 -4 -29 -16 -65 -26 -36 -10 -64 -21 -62 -23 3 -2 47 8 98 22
52 14 121 32 154 41 33 9 77 22 99 30 29 10 49 11 90 2 78 -16 84 -19 61 -28
-14 -6 -6 -8 25 -7 42 2 45 0 48 -24 3 -24 -1 -27 -45 -36 -44 -10 -419 -105
-658 -168 -237 -63 -455 -118 -665 -170 -255 -64 -299 -75 -320 -83 -8 -3 -28
-7 -43 -9 -15 -1 -162 -39 -325 -84 -163 -45 -342 -93 -397 -107 -55 -14 -101
-29 -103 -34 -2 -4 -17 -8 -33 -8 -16 0 -46 -7 -66 -15 -21 -8 -184 -51 -363
-95 -179 -44 -341 -85 -361 -90 -37 -10 -53 -29 -41 -46 10 -13 63 -36 70 -29
3 3 0 5 -6 5 -6 0 -9 6 -6 14 3 7 16 12 29 10 14 -1 27 1 29 5 4 5 33 5 94 -1
6 -1 12 -5 12 -10 0 -4 16 -8 35 -8 33 0 35 2 35 35 0 32 2 35 31 35 17 0 28
4 24 10 -3 6 -1 10 4 10 6 0 11 -18 11 -40 0 -31 3 -38 15 -34 8 4 15 1 15 -5
0 -6 5 -11 10 -11 6 0 10 7 10 15 0 9 9 15 24 15 12 0 37 5 55 11 24 8 31 17
32 37 1 26 1 26 11 -5 8 -25 17 -33 34 -33 29 0 31 16 4 25 -11 3 -20 13 -20
21 0 17 16 19 26 2 5 -8 12 1 20 23 l12 34 1 -40 c1 -22 6 -69 12 -105 6 -36
12 -79 13 -97 1 -30 2 -31 18 -16 22 20 23 27 2 19 -13 -5 -14 -3 -7 6 6 7 9
29 8 48 -1 19 2 40 7 47 5 7 7 17 3 23 -3 5 1 10 9 10 9 0 16 -9 16 -20 0 -11
-5 -20 -12 -20 -6 0 -4 -7 5 -18 10 -10 17 -24 17 -30 0 -7 5 -12 10 -12 6 0
10 16 10 35 0 48 26 47 33 -2 6 -32 2 -42 -22 -68 -24 -25 -27 -32 -16 -42 10
-10 16 -9 25 1 8 11 8 15 -2 19 -18 7 35 57 60 57 12 0 22 9 26 23 11 40 7 47
-25 47 -17 0 -28 4 -24 10 3 6 -2 11 -12 11 -10 1 0 5 22 8 l40 6 -3 72 c-3
60 -1 74 13 79 9 4 19 3 23 -1 4 -3 9 -93 12 -198 l5 -192 80 -5 80 -5 -110
-8 c-60 -4 -139 -12 -175 -16 l-65 -8 100 -3 c175 -4 157 -16 -35 -23 -101 -4
-188 -11 -193 -16 -4 -4 -28 -6 -52 -3 -47 5 -141 -6 -131 -15 10 -10 149 -10
196 0 25 5 63 9 84 8 22 -1 42 3 46 9 6 9 31 9 101 0 52 -6 137 -9 189 -7 189
10 595 37 615 41 11 2 112 9 225 15 113 7 288 18 390 25 185 13 185 13 73 15
-62 0 -115 5 -118 11 -3 6 -18 11 -33 11 -24 1 -23 2 8 9 107 24 177 30 390
31 265 1 350 12 170 22 -63 4 -128 7 -145 7 -29 0 -30 1 -31 50 0 27 4 50 8
50 5 0 7 -4 3 -9 -3 -5 -1 -12 5 -16 6 -3 13 0 16 9 3 8 12 12 21 9 13 -5 15
2 12 40 -5 54 -7 53 124 63 83 7 86 8 89 33 2 21 7 25 28 23 14 -2 26 -5 27
-6 1 0 3 -65 5 -143 l3 -142 -55 -4 c-45 -3 -41 -4 24 -5 78 -2 78 -2 118 36
22 20 46 44 53 52 8 8 49 53 93 100 117 126 122 135 121 194 0 51 0 51 -17 27
-9 -13 -49 -62 -89 -108 -40 -47 -82 -106 -95 -131 -27 -58 -98 -133 -98 -105
0 10 18 38 40 62 22 25 40 54 40 65 0 18 -6 15 -39 -19 l-38 -41 -11 25 c-19
40 -15 81 11 102 33 27 56 25 30 -3 -28 -31 -45 -66 -38 -78 3 -6 18 5 33 22
15 18 29 35 32 38 19 18 40 64 40 87 l-1 28 -14 -30 c-13 -29 -13 -30 -14 -5
-2 34 -16 54 -32 46 -8 -4 -5 0 5 8 11 9 16 16 10 16 -5 0 -5 3 1 8 19 13 35
74 24 88 -6 7 -9 28 -7 46 l3 33 -50 3 c-27 2 -54 8 -60 13 -6 6 11 9 48 7
l57 -3 3 103 c1 79 6 105 17 112 23 15 30 12 30 -10 0 -13 7 -20 20 -20 11 0
20 -4 20 -10 0 -5 8 -10 19 -10 24 0 45 -25 37 -46 -4 -9 -2 -22 4 -28 12 -16
-15 -56 -38 -56 -14 0 -17 -10 -17 -60 0 -43 4 -60 13 -60 9 0 6 -10 -9 -31
-12 -17 -23 -42 -25 -54 -1 -13 -5 -34 -9 -47 -5 -16 15 -2 73 52 l79 75 3 65
c5 99 7 120 12 125 3 3 7 -129 10 -292 l6 -298 -25 -43 c-14 -24 -48 -67 -74
-97 -27 -29 -49 -56 -49 -59 0 -3 17 -6 38 -6 43 0 61 15 92 76 l19 39 1 -52
c0 -48 2 -53 23 -54 42 -1 -13 -17 -68 -20 -48 -2 -49 -3 -10 -6 46 -5 72 -23
35 -24 -23 0 -23 -1 -5 -9 18 -8 -169 -17 -229 -11 -10 0 -30 -10 -43 -23 -21
-22 -34 -25 -96 -25 -40 0 -130 -4 -202 -8 l-130 -8 130 -15 130 -14 -80 -8
c-44 -5 -100 -10 -125 -12 -28 -2 -44 -8 -42 -15 1 -7 -6 -12 -15 -11 -10 1
-38 1 -63 0 -35 -1 -41 -3 -25 -10 11 -5 37 -9 58 -9 39 -1 54 -21 15 -21 -17
0 -19 -3 -10 -12 9 -9 21 -9 49 0 l38 11 -25 -20 c-17 -13 -34 -18 -52 -14
-16 2 -28 0 -28 -5 0 -9 17 -14 48 -13 6 1 12 -3 12 -8 0 -5 -10 -9 -23 -9
-13 0 -29 -6 -35 -12 -10 -10 -4 -15 25 -24 l38 -12 -55 0 c-30 0 -59 -1 -65
-2 -21 -3 32 -19 67 -19 71 -2 98 -31 28 -31 -22 0 -40 -4 -40 -9 0 -14 70
-38 114 -39 43 -2 65 -12 25 -12 -14 0 -31 -6 -38 -13 -11 -10 -12 -9 -6 2 4
7 4 12 -1 9 -67 -30 -77 -41 -48 -52 10 -4 13 -13 9 -26 -4 -11 -2 -20 4 -20
6 0 11 7 11 15 0 8 7 15 15 15 8 0 15 -6 15 -13 0 -16 -47 -40 -61 -31 -6 3
-16 0 -24 -6 -8 -7 -26 -10 -40 -8 -14 3 -28 1 -31 -4 -3 -4 -10 -6 -15 -3 -5
4 -9 1 -9 -5 0 -15 33 -26 38 -12 2 6 9 9 17 6 7 -3 22 -1 32 4 12 7 29 6 53
-2 30 -10 63 -7 225 20 105 17 199 33 210 36 11 2 -31 12 -93 22 -118 20 -132
31 -47 38 67 6 745 -97 745 -113 0 -18 -113 -26 -183 -13 -268 48 -220 47
-421 8 -298 -57 -430 -84 -451 -94 -14 -6 -10 -7 16 -3 22 3 39 1 43 -6 4 -6
4 -11 -1 -10 -24 4 -43 -2 -37 -13 4 -6 -2 -17 -12 -25 -19 -14 -19 -15 1 -30
19 -15 19 -15 -5 -8 -14 3 -34 10 -45 14 -11 5 -45 14 -75 21 -30 7 -62 15
-70 18 -9 3 -6 -4 7 -16 12 -12 28 -19 36 -16 8 3 18 1 22 -5 3 -6 1 -11 -4
-11 -6 0 -11 -5 -11 -11 0 -5 5 -7 10 -4 6 3 10 0 10 -7 0 -10 15 -14 58 -13
31 1 63 -1 70 -3 20 -7 13 -21 -8 -15 -15 4 -19 2 -14 -10 5 -15 32 -16 54 -2
6 3 10 2 10 -4 0 -5 8 -18 18 -27 16 -17 16 -17 0 -11 -10 3 -20 2 -24 -4 -4
-6 -13 -4 -25 7 -19 17 -20 17 -13 0 6 -16 4 -17 -14 -7 -12 7 -22 17 -22 23
0 6 -2 9 -5 6 -10 -10 7 -37 26 -43 11 -4 17 -11 13 -16 -4 -6 -11 -5 -20 2
-12 10 -15 10 -12 -2 4 -19 -61 -25 -74 -7 -7 9 -8 7 -4 -7 7 -24 -19 -30 -59
-15 -19 7 -25 5 -30 -10 -5 -16 -13 -18 -55 -13 -33 4 -55 2 -65 -7 -9 -7 -15
-8 -15 -2 0 5 -9 8 -20 5 -11 -3 -20 -9 -20 -14 0 -5 6 -6 14 -3 8 3 16 -3 19
-15 4 -16 0 -21 -15 -21 -11 0 -22 -8 -25 -20 -5 -20 -23 -28 -23 -10 0 6 -9
10 -20 10 -21 0 -27 -15 -10 -25 5 -3 10 -11 10 -16 0 -6 -4 -7 -10 -4 -17 11
-11 0 11 -19 21 -18 22 -18 15 8 -4 15 -2 26 4 26 5 0 10 -4 10 -8 0 -5 7 -9
15 -9 8 0 15 7 15 14 0 8 6 13 13 12 6 -1 20 1 30 6 11 4 23 3 29 -3 7 -7 1
-15 -21 -26 -23 -13 -31 -13 -31 -4 0 10 -2 10 -9 -1 -5 -8 -14 -10 -21 -6 -8
5 -11 3 -9 -4 3 -7 8 -11 11 -9 4 2 13 -6 21 -16 10 -14 21 -17 40 -12 20 5
27 3 27 -8 0 -8 5 -18 12 -22 6 -4 8 -3 5 3 -4 6 2 13 14 16 15 4 18 2 10 -7
-12 -15 -3 -58 11 -50 5 3 7 13 3 23 -4 11 -3 13 5 5 8 -8 8 -19 0 -39 -11
-28 -10 -28 8 -12 10 9 21 14 25 11 9 -10 -4 -34 -19 -34 -8 0 -13 -6 -11 -13
3 -19 20 -27 33 -16 8 7 14 6 19 -1 3 -6 10 -8 14 -6 3 3 7 -4 7 -14 0 -11 -5
-16 -15 -12 -10 4 -12 1 -6 -8 6 -10 4 -12 -7 -7 -9 3 -25 -3 -38 -15 -12 -11
-24 -17 -27 -14 -3 3 5 14 17 24 l23 19 -21 5 c-15 4 -23 1 -27 -13 -3 -10
-12 -16 -19 -13 -7 3 -13 -2 -13 -11 0 -8 7 -15 15 -15 8 0 12 -6 9 -14 -3 -8
-1 -17 6 -19 7 -2 9 -7 6 -10 -9 -11 -69 16 -69 31 0 7 -4 11 -9 8 -5 -3 -14
1 -21 9 -6 8 -27 19 -46 25 -20 7 -31 16 -28 22 4 6 3 8 -3 5 -11 -7 -63 14
-63 26 0 4 -7 7 -15 7 -8 0 -14 5 -12 11 1 6 -7 13 -18 14 -11 1 -28 6 -37 10
-10 4 -18 4 -18 1 0 -4 8 -10 18 -14 9 -4 73 -41 141 -82 68 -41 168 -102 222
-135 55 -33 146 -88 202 -123 56 -35 111 -68 122 -75 11 -7 46 -29 77 -49 32
-21 62 -38 67 -38 5 0 32 -15 59 -32 66 -43 193 -122 261 -161 30 -18 70 -42
90 -55 20 -12 43 -25 51 -29 8 -4 21 -13 28 -20 7 -7 20 -13 28 -13 8 0 14 -4
14 -9 0 -5 33 -28 73 -52 86 -51 81 -48 76 -53 -2 -2 -20 4 -39 14 -19 11 -44
23 -55 28 -11 6 -69 40 -130 76 -60 36 -115 66 -121 66 -7 0 -14 4 -16 8 -3 8
-114 82 -123 82 -3 0 -29 16 -59 35 -30 19 -58 35 -62 35 -4 0 -18 10 -30 21
-25 24 -51 39 -103 64 -19 8 -49 26 -66 40 -18 13 -54 36 -81 51 -27 14 -98
59 -159 99 -60 40 -134 86 -163 101 -72 39 -83 46 -119 72 -17 12 -34 22 -37
22 -3 0 -29 16 -57 36 -27 20 -98 66 -157 101 -59 36 -114 72 -122 80 -16 17
115 -52 141 -74 23 -19 31 -16 27 10 -2 17 -10 22 -33 22 -20 0 -29 5 -27 13
1 8 -2 11 -8 7 -5 -3 -23 2 -38 12 -43 28 -64 41 -105 63 -22 12 -35 25 -31
32 4 7 3 8 -5 4 -6 -4 -14 0 -17 8 -3 9 -16 16 -29 16 -12 0 -28 7 -35 15 -7
8 -17 15 -23 15 -5 0 -17 8 -26 18 -9 11 -27 22 -41 25 -14 3 -33 12 -44 20
-17 12 -17 14 -1 30 9 9 12 17 6 17 -5 0 -15 -8 -20 -17 -7 -12 -13 -14 -18
-8 -10 13 -64 37 -70 31 -3 -2 38 -30 90 -61 73 -43 94 -60 90 -74 -3 -13 4
-22 26 -31 26 -10 29 -15 19 -27 -9 -11 -9 -16 3 -24 8 -5 20 -7 28 -4 7 3 28
-6 47 -20 18 -14 37 -25 43 -25 6 0 11 -8 11 -17 0 -10 18 -31 40 -47 22 -16
37 -32 35 -35 -3 -2 -18 4 -33 15 -49 36 -55 38 -37 10 10 -14 24 -26 32 -26
9 0 13 -6 9 -15 -7 -19 4 -19 30 -1 16 13 21 13 36 0 11 -11 18 -12 23 -4 4 6
-1 17 -11 25 -11 7 -15 17 -11 22 5 4 13 0 18 -9 6 -11 16 -15 27 -11 16 6 16
5 0 -14 -24 -26 -23 -30 13 -49 25 -12 34 -13 43 -3 8 9 8 10 -1 5 -14 -8 -27
10 -13 19 15 9 51 -5 44 -17 -4 -6 -2 -8 4 -4 5 3 24 -5 40 -19 16 -13 42 -30
58 -36 23 -9 25 -13 12 -16 -22 -5 -23 -26 -3 -43 11 -9 19 -10 26 -3 8 8 6
11 -6 10 -10 -1 -20 3 -22 9 -9 25 79 -5 145 -49 37 -25 85 -53 107 -64 22
-10 42 -21 45 -24 3 -3 16 -13 30 -23 l25 -18 -25 7 c-14 4 -30 11 -36 16 -6
5 -19 7 -28 3 -9 -3 -16 -1 -16 5 0 18 -42 50 -58 44 -9 -4 -13 -2 -9 5 11 16
-51 43 -86 36 -17 -2 -41 -16 -53 -29 l-23 -25 31 -16 c23 -12 28 -18 18 -27
-9 -9 -14 -8 -24 6 -15 19 -34 22 -56 6 -12 -8 -10 -9 8 -4 20 6 23 4 20 -12
-2 -11 -11 -17 -22 -15 -9 2 -24 -2 -32 -9 -12 -10 -18 -8 -30 7 -9 10 -13 14
-10 7 4 -6 -3 -14 -14 -18 -27 -9 -18 -21 36 -44 25 -12 43 -25 39 -31 -4 -7
-14 -5 -28 5 -25 18 -37 19 -37 4 0 -5 5 -7 10 -4 6 3 10 1 10 -5 0 -6 5 -8
12 -4 8 5 9 2 5 -9 -10 -25 19 -21 37 5 9 12 19 19 22 15 4 -4 13 -2 21 4 9 8
13 8 13 1 0 -6 -5 -14 -11 -18 -8 -4 -7 -9 2 -15 16 -10 2 -40 -22 -46 -8 -3
-7 0 4 7 36 23 19 31 -48 21 -5 -1 -1 -8 9 -16 11 -8 17 -17 14 -21 -4 -3 -19
8 -34 25 -15 17 -31 28 -36 24 -6 -3 -5 -9 2 -13 7 -5 2 -8 -14 -8 -14 0 -26
4 -26 8 0 5 -8 6 -19 3 -14 -3 -20 2 -25 23 -6 22 -9 25 -17 13 -5 -7 -8 -21
-8 -29 0 -10 3 -8 9 5 10 23 13 5 4 -19 -8 -20 -24 -21 -24 -2 0 8 -8 17 -17
21 -17 7 -16 8 2 15 11 5 14 9 7 9 -7 1 -20 8 -29 16 -8 9 -18 13 -22 9 -3 -4
0 -9 7 -11 23 -9 12 -20 -18 -19 -16 1 -30 3 -30 7 0 3 -16 5 -36 6 -20 1 -41
6 -48 13 -8 8 -6 10 9 5 15 -5 17 -4 6 3 -8 6 -23 9 -33 7 -34 -7 -60 -17 -55
-21 2 -3 17 0 32 6 25 9 26 9 15 -5 -13 -15 -51 -20 -63 -8 -4 3 -2 13 5 20 8
11 2 10 -25 -3 -20 -10 -40 -26 -43 -37 -3 -10 -8 -16 -11 -13 -4 3 -12 1 -20
-6 -11 -9 -12 -7 -6 7 5 15 -1 13 -28 -8 -27 -20 -38 -24 -47 -15 -9 9 -12 7
-12 -9 0 -12 -4 -24 -9 -27 -12 -8 -9 47 3 56 5 3 -3 5 -17 5 -15 -1 -27 -4
-27 -7 0 -3 -17 -6 -38 -6 -28 -1 -42 4 -51 17 -6 11 -7 19 -2 19 6 0 13 -4
16 -10 3 -5 19 -10 35 -10 l29 0 -30 31 c-17 17 -33 28 -37 24 -4 -4 2 -13 12
-21 11 -7 17 -17 13 -21 -4 -3 -16 2 -27 12 -11 10 -20 14 -20 10 0 -4 -8 0
-19 9 -10 9 -22 16 -27 15 -22 -4 -29 3 -31 33 -2 24 0 29 9 20 18 -18 28 -15
28 8 0 14 6 20 23 19 12 0 16 -3 9 -6 -10 -4 -10 -8 0 -21 11 -13 10 -15 -4
-9 -12 4 -15 2 -11 -9 3 -7 10 -14 17 -15 6 0 21 -2 34 -3 12 -2 22 1 22 6 0
5 10 6 21 3 15 -5 19 -4 14 5 -4 6 1 18 11 26 18 15 18 15 0 6 -27 -13 -56 -4
-49 16 4 14 3 14 -5 3 -5 -7 -15 -10 -21 -6 -8 5 -9 11 -2 19 8 10 4 13 -19
13 -17 0 -30 -4 -30 -9 0 -5 -16 4 -35 19 -29 23 -35 33 -30 53 6 22 5 23 -7
8 -11 -15 -15 -15 -32 -3 -11 8 -15 19 -10 26 4 7 -4 4 -18 -7 -14 -10 -23
-25 -20 -33 4 -11 7 -11 17 2 10 14 15 12 43 -14 17 -16 35 -29 40 -29 5 0 7
-11 4 -25 -2 -14 -9 -25 -14 -25 -6 0 -7 7 -4 17 7 16 -23 53 -44 53 -5 0 -10
5 -10 11 0 5 -5 7 -10 4 -6 -4 -7 -12 -3 -18 3 -7 -3 -3 -15 7 -12 11 -22 14
-22 8 0 -20 -22 -13 -27 8 -6 22 -18 26 -28 10 -8 -12 -35 6 -35 22 0 6 7 5
15 -2 22 -18 31 -5 11 15 -9 9 -16 22 -16 28 0 6 7 1 16 -11 17 -25 34 -29 34
-8 0 8 4 18 10 21 7 4 7 -2 0 -19 -5 -14 -7 -33 -3 -42 6 -15 7 -15 19 1 7 9
11 22 10 28 -2 7 -1 9 1 5 3 -5 8 -8 13 -8 12 0 0 37 -16 50 -9 8 -10 18 -4
36 7 19 6 26 -9 33 -10 6 -21 7 -25 4 -3 -3 -6 2 -6 12 0 15 3 16 12 7 18 -18
45 -14 51 7 3 14 1 18 -9 14 -8 -3 -11 -9 -8 -14 3 -5 1 -9 -5 -9 -21 0 -21
21 0 39 23 18 23 19 4 37 -17 17 -18 17 -12 2 6 -18 -24 -44 -36 -31 -13 12
-52 8 -59 -7 -5 -11 -7 -8 -7 9 -1 18 3 22 19 18 23 -6 32 13 14 30 -15 15
-28 17 -19 3 3 -5 2 -10 -4 -10 -22 0 -20 20 4 44 14 14 25 32 25 40 0 8 6 16
13 19 6 2 9 7 6 11 -4 4 -14 0 -22 -9 -10 -9 -18 -11 -22 -5 -4 6 -11 7 -17 4
-7 -4 -8 -2 -4 4 4 7 14 12 22 12 8 0 12 5 9 11 -4 6 -13 8 -21 5 -8 -3 -13
-2 -13 2 4 24 -4 38 -21 39 -11 1 -18 -2 -15 -8 4 -5 1 -9 -5 -9 -7 0 -9 7 -6
16 3 9 6 17 6 19 0 1 13 1 29 -1 25 -3 28 0 24 16 -3 11 -11 20 -17 20 -17 0
-338 -55 -496 -85 -74 -14 -209 -39 -300 -55 -91 -17 -295 -54 -455 -83 l-290
-53 -9 38 c-5 21 -7 40 -4 43 5 5 115 26 283 54 117 20 356 63 565 101 101 19
243 44 513 93 70 12 126 25 125 29 -2 3 1 10 6 15 5 5 6 3 2 -4 -9 -16 41 -18
64 -3 17 11 9 20 -34 39 -26 11 -28 10 -16 -3 8 -11 9 -16 1 -16 -6 0 -11 5
-11 11 0 5 -4 8 -9 4 -5 -3 -13 0 -17 6 -4 8 -3 9 4 5 7 -4 12 -2 12 4 0 6 12
8 30 5 19 -3 30 -1 30 6 0 6 6 9 14 6 17 -7 28 16 20 38 -4 9 0 15 9 15 8 0
17 -6 20 -14 3 -7 18 -17 34 -20 15 -4 38 -17 51 -28 18 -18 22 -19 22 -6 0 9
-6 19 -12 21 -10 4 -10 6 0 6 7 1 23 -9 35 -20 17 -17 18 -21 5 -16 -10 4 -18
2 -18 -4 0 -10 78 -3 89 7 5 4 -36 38 -93 76 -44 30 -65 28 -26 -2 14 -11 20
-20 13 -20 -6 0 -15 5 -19 11 -3 6 -17 8 -31 4 -21 -5 -24 -3 -18 15 4 11 3
20 -2 19 -4 -1 -15 -1 -23 0 -13 1 -13 2 0 11 8 5 13 10 10 11 -3 0 -16 2 -30
4 -14 2 -40 6 -58 9 -24 4 -32 2 -29 -7 6 -18 -45 -36 -92 -32 -100 8 -122 25
-58 44 l32 10 -30 -2 c-16 -1 -33 -6 -38 -12 -4 -6 -11 -3 -18 8 -5 9 -19 17
-29 17 -24 0 -25 6 -6 26 16 15 30 19 22 5 -9 -13 19 -32 38 -25 20 8 21 24 1
24 -8 0 -15 5 -15 10 0 6 5 10 10 10 6 0 10 4 10 8 0 4 -10 8 -22 7 -38 -1
-68 -16 -68 -32 0 -14 -3 -14 -20 2 -23 20 -16 39 11 32 10 -3 36 1 58 9 42
14 73 10 69 -10 -4 -20 23 -58 38 -52 7 3 17 -2 22 -11 5 -8 15 -13 23 -11 8
3 22 1 31 -3 29 -15 30 9 2 46 -14 19 -33 35 -40 35 -8 0 -14 4 -14 10 0 10
-79 63 -215 145 -44 26 -99 61 -122 76 -44 30 -108 43 -69 14 24 -18 12 -35
-26 -35 -21 0 -31 6 -35 20 -6 24 -2 24 -218 5 -93 -9 -249 -22 -345 -30 -96
-8 -254 -21 -350 -30 -96 -9 -204 -18 -240 -21 -36 -2 -170 -13 -299 -24 -129
-11 -240 -20 -248 -20 -11 0 -13 -72 -13 -400 0 -325 2 -400 13 -400 8 0 65 9
128 21 159 28 486 86 535 94 l41 6 -3 57 -3 57 10 -50 c5 -27 16 -84 24 -125
8 -41 26 -122 40 -180 13 -58 27 -132 30 -165 18 -229 38 -436 55 -595 11
-102 19 -207 19 -235 l-1 -50 -8 40 c-15 73 -65 593 -75 766 -3 53 -17 152
-31 220 -14 68 -28 137 -31 152 -4 23 -10 28 -27 23 -73 -17 -670 -116 -679
-112 -7 2 -4 5 6 5 9 1 17 6 17 11 0 13 -3 13 -35 -2 -18 -8 -22 -14 -13 -20
10 -6 10 -8 1 -8 -10 0 -13 -135 -13 -640 l0 -640 450 0 451 0 -6 93 c-3 61
-2 85 4 72 5 -11 10 -42 10 -70 1 -27 4 -60 7 -72 l6 -23 3204 0 3204 0 0
2750 0 2750 -1530 0 c-1013 0 -1530 -3 -1530 -10 0 -5 7 -10 15 -10 9 0 21
-11 27 -25 6 -14 16 -25 21 -25 5 0 4 7 -3 15 -7 8 -9 15 -5 15 11 0 65 -41
65 -49 0 -26 -119 25 -144 61 -9 12 -16 17 -16 11 0 -9 -10 -8 -35 3 -29 12
-148 14 -754 14 l-720 0 -21 -30 c-16 -23 -19 -34 -10 -49 5 -11 10 -23 10
-28 -1 -4 -7 3 -14 16 -13 23 -14 22 -74 -50 -34 -41 -151 -184 -260 -317
-108 -134 -223 -276 -255 -315 -33 -40 -64 -74 -70 -76 -6 -2 7 18 28 45 55
68 190 233 310 378 55 67 155 190 223 274 l123 152 -377 0 c-208 0 -375 -3
-371 -6 9 -9 79 -26 105 -25 13 1 45 -10 72 -24 27 -14 56 -25 64 -25 8 0 19
-6 23 -12 4 -7 18 -19 31 -26 18 -10 22 -10 22 3 0 8 6 12 15 9 11 -5 12 -10
3 -24 -10 -16 -16 -16 -62 -4 -28 7 -123 41 -211 74 l-160 60 -932 0 -933 0 0
-949z m4526 762 c-3 -3 -17 4 -32 16 -15 11 -33 21 -40 21 -8 0 -14 5 -14 10
0 6 -9 10 -20 10 -13 0 -20 7 -20 20 0 17 9 13 66 -26 36 -26 63 -49 60 -51z
m-2216 28 c-14 -28 -27 -34 -47 -22 -16 9 -16 10 3 11 12 0 27 7 34 15 17 21
23 19 10 -4z m734 -80 c-6 -6 -84 31 -84 39 0 5 20 -2 44 -14 24 -11 42 -23
40 -25z m1734 -66 c-9 -9 -30 14 -23 25 6 9 10 8 17 -4 6 -10 8 -19 6 -21z
m-3176 -65 c2 -5 57 -25 123 -44 157 -45 213 -64 195 -65 -29 -1 -334 95 -338
107 -2 7 1 12 6 12 6 0 12 -4 14 -10z m1922 -49 c-8 -9 -34 10 -34 25 0 16 2
16 19 -2 10 -10 17 -21 15 -23z m-3409 -41 c3 -5 1 -10 -4 -10 -6 0 -11 5 -11
10 0 6 2 10 4 10 3 0 8 -4 11 -10z m1852 -26 c-3 -3 -12 -4 -19 -1 -8 3 -5 6
6 6 11 1 17 -2 13 -5z m38 -14 c3 -6 -1 -7 -9 -4 -18 7 -21 14 -7 14 6 0 13
-4 16 -10z m-1590 -30 c13 -5 14 -9 5 -9 -8 0 -24 4 -35 9 -13 5 -14 9 -5 9 8
0 24 -4 35 -9z m62 -16 c-3 -3 -12 -4 -19 -1 -8 3 -5 6 6 6 11 1 17 -2 13 -5z
m210 -44 c98 -22 228 -51 288 -65 61 -14 189 -43 285 -65 207 -47 419 -95 625
-143 408 -95 613 -141 860 -197 149 -33 329 -74 400 -91 339 -78 1181 -271
1288 -294 84 -19 102 -31 21 -15 -110 21 -363 76 -789 170 -247 55 -646 143
-885 195 -462 102 -783 177 -1180 274 -135 33 -324 78 -420 100 -96 23 -267
63 -380 91 -113 28 -226 55 -252 61 -27 6 -48 13 -48 15 0 6 -5 7 187 -36z
m6208 -167 c47 -6 55 -11 35 -23 -25 -16 -54 -11 -85 16 -21 18 -24 24 -10 19
11 -4 38 -10 60 -12z m-45 -182 c0 -6 -4 -13 -10 -16 -5 -3 -10 1 -10 9 0 9 5
16 10 16 6 0 10 -4 10 -9z m-4106 -26 c-4 -8 -11 -15 -16 -15 -6 0 -5 6 2 15
7 8 14 15 16 15 2 0 1 -7 -2 -15z m-14 -35 c0 -5 -4 -10 -9 -10 -6 0 -13 5
-16 10 -3 6 1 10 9 10 9 0 16 -4 16 -10z m670 -3 c0 -13 -109 -81 -117 -73 -9
8 72 76 84 72 7 -3 13 -1 13 4 0 6 5 10 10 10 6 0 10 -6 10 -13z m-137 -72
c-3 -9 -8 -14 -10 -11 -3 3 -2 9 2 15 9 16 15 13 8 -4z m782 5 c3 -5 2 -10 -4
-10 -5 0 -13 5 -16 10 -3 6 -2 10 4 10 5 0 13 -4 16 -10z m-715 -14 c0 -2 -7
-7 -16 -10 -8 -3 -12 -2 -9 4 6 10 25 14 25 6z m-50 -30 c-9 -12 -4 -17 32
-26 24 -5 57 -15 73 -20 25 -8 22 -9 -20 -5 -92 9 -141 50 -76 64 2 1 -2 -5
-9 -13z m-775 -36 c-11 -12 -15 -26 -11 -37 6 -14 4 -15 -5 -6 -6 6 -19 9 -28
6 -9 -3 0 8 19 25 40 36 51 41 25 12z m3530 -30 c-3 -5 -10 -10 -16 -10 -5 0
-9 5 -9 10 0 6 7 10 16 10 8 0 12 -4 9 -10z m-2548 -6 c-3 -3 -12 -4 -19 -1
-8 3 -5 6 6 6 11 1 17 -2 13 -5z m2490 -10 c-3 -3 -12 -4 -19 -1 -8 3 -5 6 6
6 11 1 17 -2 13 -5z m-3688 -47 c-2 -1 -13 -9 -24 -17 -19 -14 -19 -14 -6 3 7
9 18 17 24 17 6 0 8 -1 6 -3z m32 -20 c-10 -9 -11 -8 -5 6 3 10 9 15 12 12 3
-3 0 -11 -7 -18z m3429 3 c-8 -5 -22 -9 -30 -9 -10 0 -8 3 5 9 27 12 43 12 25
0z m-3469 -30 c-13 -11 -33 -20 -45 -20 -20 1 -20 1 -3 15 11 7 25 11 32 9 7
-3 16 -1 20 5 3 6 9 11 13 11 4 -1 -4 -10 -17 -20z m3418 16 c-7 -7 -193 -55
-197 -51 -2 2 22 11 54 20 33 9 70 20 84 25 26 9 66 13 59 6z m-3622 -32 c-3
-3 -12 -4 -19 -1 -8 3 -5 6 6 6 11 1 17 -2 13 -5z m133 -4 c0 -5 -5 -10 -11
-10 -5 0 -7 5 -4 10 3 6 8 10 11 10 2 0 4 -4 4 -10z m-67 -7 c-7 -2 -21 -2
-30 0 -10 3 -4 5 12 5 17 0 24 -2 18 -5z m37 -13 c0 -5 -4 -10 -10 -10 -5 0
-10 5 -10 10 0 6 5 10 10 10 6 0 10 -4 10 -10z m47 -6 c-3 -3 -12 -4 -19 -1
-8 3 -5 6 6 6 11 1 17 -2 13 -5z m3209 -10 c-26 -9 -50 -13 -53 -10 -6 6 54
24 82 24 11 1 -2 -6 -29 -14z m-3286 -1 c-1 -17 -57 -71 -80 -78 -21 -6 -18 0
20 37 45 44 60 55 60 41z m1669 -9 c9 -8 -45 -2 -64 6 -14 7 -8 8 20 3 22 -3
42 -7 44 -9z m-1629 -4 c0 -5 -2 -10 -4 -10 -3 0 -8 5 -11 10 -3 6 -1 10 4 10
6 0 11 -4 11 -10z m18 -27 c-44 -37 -57 -54 -51 -70 6 -14 -23 -18 -31 -4 -7
10 88 101 104 101 6 0 -3 -12 -22 -27z m3122 11 c-56 -18 -476 -135 -509 -142
-16 -3 -22 -1 -17 7 4 6 2 11 -5 11 -10 0 -10 3 -2 11 7 7 38 13 70 14 51 1
236 44 408 95 71 21 120 24 55 4z m-3160 -8 c0 -2 -16 -16 -36 -31 -31 -24
-35 -25 -25 -7 14 26 61 55 61 38z m1777 -2 c-3 -3 -12 -4 -19 -1 -8 3 -5 6 6
6 11 1 17 -2 13 -5z m2063 -34 c-8 -5 -24 -9 -35 -9 -16 1 -16 2 5 9 35 11 48
11 30 0z m-1060 -30 c-8 -5 -22 -9 -30 -9 -10 0 -8 3 5 9 27 12 43 12 25 0z
m-550 -30 c20 -6 21 -8 5 -8 -11 0 -31 4 -45 8 -20 6 -21 8 -5 8 11 0 31 -4
45 -8z m180 0 c20 -6 21 -8 5 -8 -11 0 -31 4 -45 8 -20 6 -21 8 -5 8 11 0 31
-4 45 -8z m205 0 c-3 -5 -13 -10 -21 -10 -8 0 -12 5 -9 10 3 6 13 10 21 10 8
0 12 -4 9 -10z m-805 -10 c0 -5 -8 -10 -18 -10 -10 0 -22 -4 -27 -9 -13 -12
-115 -44 -121 -38 -2 2 0 17 6 32 10 26 13 27 60 23 28 -3 50 -1 50 3 0 5 11
9 25 9 14 0 25 -4 25 -10z m667 -6 c-3 -3 -12 -4 -19 -1 -8 3 -5 6 6 6 11 1
17 -2 13 -5z m-134 -13 c17 -6 5 -11 -123 -48 -8 -3 5 9 30 25 47 32 62 36 93
23z m252 -12 c34 -13 -6 -10 -60 6 l-50 15 45 -7 c25 -3 54 -9 65 -14z m135
-4 c-82 -27 -99 -30 -84 -16 10 11 108 38 139 39 11 1 -14 -10 -55 -23z m715
11 c-33 -15 -123 -31 -113 -21 7 8 105 33 128 33 8 0 2 -5 -15 -12z m-4687
-14 c2 -7 -2 -10 -12 -6 -9 3 -16 11 -16 16 0 13 23 5 28 -10z m4112 10 c0 -5
-29 -14 -65 -21 -36 -7 -72 -19 -79 -27 -9 -9 -22 -10 -42 -5 l-29 8 25 7 c14
3 61 15 105 25 44 10 81 19 83 20 1 1 2 -3 2 -7z m37 2 c-3 -3 -12 -4 -19 -1
-8 3 -5 6 6 6 11 1 17 -2 13 -5z m-3669 -34 c-14 -23 -28 -26 -28 -7 0 8 -4 7
-10 -3 -5 -8 -10 -10 -10 -4 0 16 22 34 42 34 16 0 16 -3 6 -20z m2007 10 c-3
-5 -14 -10 -23 -10 -15 0 -15 2 -2 10 20 13 33 13 25 0z m1386 -10 c1 -5 2
-16 3 -22 1 -16 102 -40 141 -33 17 3 25 1 18 -3 -8 -5 10 -13 47 -20 33 -7
60 -17 60 -22 0 -13 10 -13 -111 11 -167 33 -179 37 -179 71 0 26 18 41 21 18z
m674 5 c-5 -2 -36 -11 -68 -19 -66 -16 -69 -7 -4 11 38 10 96 17 72 8z m-4581
-39 c-3 -13 -1 -27 5 -30 19 -12 12 -24 -10 -19 -15 4 -19 11 -15 27 3 11 6
27 6 34 0 6 5 12 10 12 6 0 8 -10 4 -24z m-409 -5 c3 -5 0 -13 -6 -17 -7 -4
-9 -3 -5 4 3 5 0 13 -6 15 -9 4 -10 6 -1 6 6 1 14 -3 18 -8z m7 -57 c-8 -15
-9 -15 -15 0 -4 10 -3 15 3 11 6 -3 10 2 11 12 0 10 3 13 5 6 3 -7 1 -20 -4
-29z m4638 -20 c0 -19 -4 -34 -9 -34 -6 0 -9 18 -8 39 2 48 17 44 17 -5z
m-3792 20 c-4 -3 -12 -6 -20 -8 -7 -1 -19 -5 -25 -9 -7 -5 -13 -4 -13 2 0 5 6
12 13 14 17 7 51 8 45 1z m3587 -12 c-6 -5 -68 -23 -140 -40 -259 -62 -326
-75 -336 -65 -6 6 19 16 68 27 43 10 85 23 93 28 17 10 4 8 -95 -16 -33 -8
-100 -25 -148 -36 -49 -12 -86 -24 -84 -27 4 -4 49 6 110 23 11 4 16 1 15 -7
-2 -8 -59 -26 -138 -46 -299 -72 -606 -143 -618 -143 -2 0 0 5 3 10 8 14 9 14
-127 -20 -66 -17 -124 -30 -129 -28 -22 7 793 218 1174 303 79 17 87 18 67 5
-13 -9 -13 -10 0 -10 8 0 33 5 55 11 89 25 247 46 230 31z m-4047 -39 c14 -12
14 -13 -4 -13 -27 0 -33 7 -26 33 4 15 7 17 10 7 2 -8 11 -21 20 -27z m4159
21 c-3 -3 -12 -4 -19 -1 -8 3 -5 6 6 6 11 1 17 -2 13 -5z m453 -14 c13 -9 13
-10 0 -9 -8 0 -24 4 -35 9 l-20 9 20 0 c11 0 27 -4 35 -9z m-400 -10 c0 -5 -4
-10 -10 -10 -5 0 -10 5 -10 10 0 6 5 10 10 10 6 0 10 -4 10 -10z m365 -5 c43
-13 44 -14 10 -8 -22 4 -52 7 -67 7 -14 1 -24 4 -21 9 6 10 21 9 78 -8z m140
-16 c14 -6 9 -7 -15 -3 -19 4 -44 11 -55 15 -14 6 -9 7 15 3 19 -4 44 -11 55
-15z m-28 -15 c-3 -3 -12 -4 -19 -1 -8 3 -5 6 6 6 11 1 17 -2 13 -5z m123 -14
c8 -5 11 -10 5 -10 -5 0 -17 5 -25 10 -8 5 -10 10 -5 10 6 0 17 -5 25 -10z
m-4845 -20 c3 -5 1 -10 -4 -10 -6 0 -11 5 -11 10 0 6 2 10 4 10 3 0 8 -4 11
-10z m-615 -55 c0 -14 -4 -25 -10 -25 -5 0 -10 11 -10 25 0 14 5 25 10 25 6 0
10 -11 10 -25z m-30 -15 c0 -5 -4 -10 -10 -10 -5 0 -10 5 -10 10 0 6 5 10 10
10 6 0 10 -4 10 -10z m1310 -15 c0 -8 -2 -15 -4 -15 -2 0 -6 7 -10 15 -3 8 -1
15 4 15 6 0 10 -7 10 -15z m40 5 c0 -5 -4 -10 -10 -10 -5 0 -10 5 -10 10 0 6
5 10 10 10 6 0 10 -4 10 -10z m-548 -32 c-22 -22 -13 -38 19 -38 24 0 30 -4
27 -17 -2 -10 -11 -18 -21 -17 -9 0 -38 1 -63 2 -25 1 -43 6 -39 11 3 6 27 9
53 7 26 -2 32 -1 15 1 -18 2 -33 6 -33 9 0 6 43 54 49 54 3 0 0 -5 -7 -12z
m277 -37 c46 -6 87 -14 90 -17 3 -4 -14 -4 -39 -1 -25 4 -73 9 -107 13 -47 5
-60 10 -56 20 3 9 9 11 17 5 6 -5 49 -14 95 -20z m4825 14 c-17 -13 -13 -14
46 -15 46 -1 59 -4 45 -10 -19 -8 -18 -11 4 -14 32 -4 14 -15 -33 -21 -31 -4
-59 -12 -62 -17 -6 -9 99 -6 227 6 57 6 -96 -26 -216 -45 -86 -13 -94 -19 -29
-20 27 0 42 -3 34 -6 -42 -14 -41 -17 10 -23 30 -4 60 -4 65 0 17 13 75 22 75
13 0 -5 -12 -14 -27 -20 l-28 -11 28 -1 c21 -1 30 5 34 20 5 20 10 21 72 14
41 -4 69 -12 74 -21 5 -8 16 -13 25 -10 9 3 64 7 122 10 92 4 98 3 50 -6 -73
-13 -93 -33 -25 -25 88 11 496 39 501 35 2 -2 -87 -14 -199 -27 -111 -12 -220
-26 -242 -32 -36 -8 -503 -65 -632 -76 -46 -4 -53 -2 -53 13 0 16 -1 16 -12 2
-7 -9 -24 -18 -38 -20 -21 -2 -26 2 -28 25 -3 25 -1 28 16 23 11 -4 23 -2 27
4 3 5 2 10 -4 10 -11 0 12 50 28 60 13 7 21 101 10 115 -4 6 -9 23 -11 40 -3
26 1 31 27 36 17 4 54 7 84 8 50 1 53 0 35 -14z m-4439 -46 c24 -7 21 -8 -19
-4 -27 3 -71 5 -97 5 -27 0 -49 4 -49 9 0 10 122 3 165 -10z m4142 15 c-3 -3
-12 -4 -19 -1 -8 3 -5 6 6 6 11 1 17 -2 13 -5z m-4642 -14 c18 -8 17 -9 -7 -9
-16 -1 -28 4 -28 9 0 12 8 12 35 0z m4599 -2 c22 -6 45 -15 50 -19 13 -12 -35
-28 -70 -23 -16 2 -21 1 -12 -2 10 -3 15 -11 11 -20 -4 -10 3 -14 26 -14 30 0
31 -2 32 -42 1 -24 3 -76 5 -115 2 -43 -1 -73 -6 -73 -6 0 -10 7 -10 15 0 18
-2 18 -110 4 -47 -6 -97 -11 -112 -11 -16 -1 -28 -7 -28 -15 0 -15 -65 -19
-74 -4 -13 21 -145 21 -331 1 -156 -18 -460 -49 -487 -50 -4 0 -9 -12 -11 -27
-2 -16 -4 17 -4 72 0 55 2 83 4 63 4 -36 5 -36 34 -26 43 15 49 1 8 -17 -33
-15 -30 -15 56 -9 50 4 110 13 135 20 24 7 46 11 49 9 2 -3 -1 -5 -8 -5 -7 0
-10 -4 -6 -9 3 -5 -7 -12 -22 -14 -75 -11 81 -5 252 9 257 22 268 37 35 48
-58 3 -170 12 -250 20 -80 9 -178 17 -217 18 -109 4 -91 23 19 21 51 -1 121
-4 156 -8 35 -3 62 -2 62 4 0 5 6 11 14 14 21 8 56 -4 56 -19 0 -9 11 -14 33
-13 17 0 26 3 20 6 -19 7 -16 23 5 24 11 1 8 4 -8 8 -20 6 -12 9 35 14 33 3
64 2 71 -4 7 -5 27 -6 50 -1 36 8 32 9 -48 16 -49 4 -88 12 -88 17 0 5 27 7
63 4 34 -3 89 -5 122 -5 74 1 100 20 30 21 -28 1 -61 4 -75 8 l-25 7 24 7 c13
3 33 1 44 -5 22 -12 143 -2 152 13 4 5 -12 9 -34 9 -23 0 -41 4 -41 9 0 6 -19
11 -42 13 -31 2 -5 8 88 21 73 10 156 17 185 14 30 -2 44 -2 32 0 -36 7 -27
21 15 26 75 8 106 7 146 -5z m-3804 -20 c11 -7 8 -8 -10 -4 -14 3 -52 6 -85 6
-35 0 -55 4 -47 8 16 11 122 3 142 -10z m-697 5 c-13 -2 -33 -2 -45 0 -13 2
-3 4 22 4 25 0 35 -2 23 -4z m3285 -50 c-1 -51 -2 -53 -5 -15 -2 23 -8 40 -14
37 -13 -9 -11 9 3 23 7 7 13 12 15 12 2 0 2 -26 1 -57z m162 47 c0 -5 -4 -10
-10 -10 -5 0 -10 5 -10 10 0 6 5 10 10 10 6 0 10 -4 10 -10z m-3240 -10 c0 -5
-2 -10 -4 -10 -3 0 -8 5 -11 10 -3 6 -1 10 4 10 6 0 11 -4 11 -10z m595 -21
c-4 -6 -13 -8 -20 -5 -8 3 -19 -2 -25 -10 -13 -15 -50 -19 -50 -6 0 13 41 31
73 31 18 1 26 -3 22 -10z m3101 -46 c-10 -10 -19 5 -10 18 6 11 8 11 12 0 2
-7 1 -15 -2 -18z m1074 23 c0 -2 -11 -6 -25 -8 -14 -3 -25 -1 -25 3 0 5 11 9
25 9 14 0 25 -2 25 -4z m-4346 -51 c-4 -8 -14 -15 -24 -15 -11 0 -22 -4 -25
-10 -4 -6 16 -10 54 -10 33 0 62 -4 66 -9 3 -6 -11 -8 -35 -5 -45 5 -71 -3
-49 -16 7 -5 -24 -10 -70 -12 -46 -2 -86 1 -89 6 -3 6 0 12 6 14 20 6 14 20
-10 25 -13 2 -7 3 13 1 24 -3 56 5 90 20 63 29 81 32 73 11z m5284 8 c-10 -2
-28 -2 -40 0 -13 2 -5 4 17 4 22 1 32 -1 23 -4z m-5592 -18 c4 -8 14 -15 24
-15 17 0 90 -27 90 -33 0 -2 -28 -2 -62 0 -46 2 -56 0 -38 -6 20 -7 11 -9 -37
-10 -36 -1 -63 3 -63 9 0 6 7 10 15 10 8 0 15 4 15 10 0 5 -8 7 -17 3 -23 -8
-11 5 24 28 35 22 42 23 49 4z m1707 8 c-13 -2 -35 -2 -50 0 -16 2 -5 4 22 4
28 0 40 -2 28 -4z m1547 3 c0 -3 -4 -8 -10 -11 -5 -3 -10 -1 -10 4 0 6 5 11
10 11 6 0 10 -2 10 -4z m-1467 -13 c-7 -2 -21 -2 -30 0 -10 3 -4 5 12 5 17 0
24 -2 18 -5z m1261 -9 c6 -15 4 -15 -11 -3 -10 7 -20 15 -22 16 -2 2 3 3 11 3
9 0 19 -7 22 -16z m-3329 -4 c3 -5 -1 -10 -10 -10 -9 0 -13 5 -10 10 3 6 8 10
10 10 2 0 7 -4 10 -10z m742 3 c-7 -7 -139 -4 -146 3 -2 2 31 4 74 4 43 0 75
-3 72 -7z m1510 0 c-20 -2 -52 -2 -70 0 -17 2 0 4 38 4 39 0 53 -2 32 -4z
m313 -23 c40 -10 -103 -3 -210 11 -48 6 -33 7 55 3 66 -3 136 -9 155 -14z
m-885 5 c-18 -7 -410 -107 -430 -109 -11 -2 -27 -6 -35 -9 -8 -4 -78 -20 -154
-38 -77 -17 -146 -33 -153 -36 -7 -3 -13 -1 -13 5 0 17 169 61 505 133 72 15
155 34 185 42 47 13 123 22 95 12z m2028 -2 c-7 -2 -19 -2 -25 0 -7 3 -2 5 12
5 14 0 19 -2 13 -5z m-799 -18 c-7 -18 -119 -21 -144 -4 -11 7 6 8 58 4 46 -3
72 -2 72 5 0 5 4 10 10 10 5 0 7 -7 4 -15z m-167 -1 c-3 -3 -12 -4 -19 -1 -8
3 -5 6 6 6 11 1 17 -2 13 -5z m-2543 -55 c159 -6 298 -14 310 -19 13 -5 -21
-7 -84 -4 -58 2 -271 11 -475 20 -203 8 -372 18 -375 21 -3 3 72 2 165 -1 94
-4 300 -11 459 -17z m-1303 -26 c13 -16 12 -17 -3 -4 -10 7 -18 15 -18 17 0 8
8 3 21 -13z m6406 -17 c-2 -80 4 -108 24 -113 19 -5 18 -9 -19 -47 -41 -43
-62 -76 -62 -98 0 -7 11 1 24 18 28 34 103 90 112 81 10 -10 -15 -45 -64 -86
-47 -39 -82 -94 -68 -108 4 -4 13 2 21 13 19 28 105 98 111 91 11 -10 -20 -53
-75 -105 -31 -29 -57 -49 -59 -44 -1 4 -131 6 -287 4 -273 -4 -285 -4 -285 14
-1 18 -1 18 -12 -1 -6 -11 -29 -39 -51 -62 l-41 -43 44 0 c50 0 146 29 100 30
-15 0 -31 -5 -38 -12 -9 -9 -12 -9 -12 2 0 33 17 35 239 35 232 0 260 -9 43
-14 -172 -3 -202 -19 -42 -22 108 -1 118 -3 75 -10 -27 -5 -72 -7 -100 -4 -27
4 -46 3 -42 -1 8 -8 27 -11 147 -23 47 -4 69 -9 50 -11 -19 -1 -46 -5 -60 -9
l-25 -7 33 -14 c41 -19 41 -27 -2 -36 -19 -3 -37 -12 -40 -20 -3 -8 -16 -14
-28 -15 -22 -1 -22 -1 2 -9 19 -6 11 -8 -33 -9 -36 -1 -56 -5 -52 -11 3 -5 20
-10 37 -10 17 0 28 -3 25 -6 -7 -8 -107 -7 -152 1 -24 4 -26 3 -10 -4 11 -5
16 -10 10 -11 -27 -5 49 -18 115 -20 65 -3 70 -4 35 -10 l-40 -7 35 -3 c31 -2
29 -3 -17 -10 -69 -10 -83 -16 -83 -35 0 -12 -12 -15 -57 -15 -42 0 -54 3 -43
10 17 11 -19 13 -215 10 -66 -1 -140 3 -165 9 -24 5 -47 6 -50 2 -10 -14 -200
5 -200 20 0 5 -26 10 -57 10 -47 1 -52 3 -28 9 l30 7 -24 10 -25 10 25 6 c13
3 47 9 74 14 l50 8 -65 6 c-36 4 -108 10 -160 14 -95 8 -102 23 -11 24 24 1
42 4 38 7 -3 3 -70 5 -149 5 -196 -2 -405 10 -358 20 28 7 196 4 270 -3 28 -3
120 15 126 24 4 6 -49 9 -144 6 -83 -1 -149 0 -147 3 2 3 -9 3 -26 1 -28 -4
-29 -3 -29 39 l0 44 224 2 c124 1 276 6 338 12 62 6 197 11 301 11 184 0 187
0 187 21 l0 21 -285 -7 c-274 -7 -285 -7 -285 11 0 15 -6 13 -28 -14 -15 -18
-35 -32 -45 -32 -15 0 -9 11 27 51 25 28 46 58 46 66 0 8 -21 -9 -47 -37 l-48
-52 -232 -5 c-212 -5 -233 -4 -233 11 0 9 -11 22 -25 28 -25 11 -34 28 -15 28
6 0 10 31 10 74 0 68 2 74 23 79 12 3 106 9 209 13 l187 7 -4 -39 c-1 -21 2
-43 9 -47 8 -6 8 -10 -1 -14 -20 -7 -15 -33 5 -33 16 0 18 8 18 48 -1 41 2 47
21 50 18 3 22 0 17 -15 -4 -14 -1 -13 12 5 9 12 25 22 35 22 23 0 25 -15 4
-24 -16 -6 -55 -64 -55 -81 0 -5 25 17 55 49 30 33 55 67 55 78 0 10 5 18 11
18 5 0 7 -4 4 -10 -3 -5 0 -10 9 -10 8 0 16 4 18 9 4 11 199 25 227 16 12 -4
18 -12 14 -21 -7 -18 2 -18 21 2 12 11 16 12 16 2 0 -7 11 -14 25 -14 26 -2
35 11 13 18 -7 3 -2 7 10 10 12 4 22 2 22 -3 0 -5 5 -9 10 -9 6 0 10 9 10 19
0 17 10 20 76 26 57 6 78 4 84 -5 6 -9 13 -4 24 17 11 22 24 32 46 35 36 5 38
-2 9 -28 -41 -36 -79 -97 -79 -126 0 -27 6 -23 90 64 50 51 87 85 84 75 -6
-15 -2 -17 32 -12 68 9 536 36 541 31 3 -3 5 -28 5 -57 0 -52 0 -52 18 -29 10
13 18 42 18 66 1 36 -1 42 -15 37 -13 -5 -15 -2 -10 11 4 10 3 15 -3 11 -11
-7 -13 6 -5 27 6 16 53 20 52 4z m56 7 c-19 -7 -16 -23 5 -24 16 -1 16 -2 -1
-6 -14 -4 -16 -8 -6 -19 9 -11 8 -14 -5 -14 -12 0 -16 9 -16 35 0 27 4 35 18
34 10 0 12 -3 5 -6z m-3708 -24 c6 -4 11 -19 13 -34 1 -19 -4 -28 -23 -35 -19
-7 -25 -17 -25 -40 0 -18 6 -33 15 -36 13 -5 12 -10 -5 -31 -11 -14 -20 -37
-20 -51 0 -14 -3 -22 -7 -19 -6 7 -11 256 -5 262 5 4 46 -7 57 -16z m1297 14
c-6 -2 -10 -9 -6 -14 3 -5 -9 -9 -27 -9 -34 0 -30 14 6 23 27 6 43 7 27 0z
m-1243 -45 c-2 -30 -3 -35 -6 -15 -2 15 -9 27 -15 27 -6 0 -6 6 2 15 18 22 20
19 19 -27z m1133 20 c-12 -12 -35 -1 -27 12 3 5 13 6 21 3 10 -4 12 -9 6 -15z
m-1064 -86 c18 -2 39 2 46 7 8 6 22 8 31 4 13 -4 16 -3 11 5 -8 13 4 15 28 6
9 -3 14 -10 11 -14 -3 -4 27 -6 65 -3 67 4 70 3 70 -18 0 -16 -5 -20 -20 -16
-11 3 -20 1 -20 -4 0 -5 11 -9 25 -9 22 0 24 -4 23 -35 -2 -48 -16 -56 -79
-50 -74 8 -115 6 -145 -5 -14 -6 -36 -10 -50 -10 -24 0 -32 -14 -14 -25 6 -3
10 -30 11 -58 0 -29 3 -47 5 -40 3 7 12 9 20 6 8 -3 17 3 21 13 10 24 58 32
49 8 -4 -12 -2 -15 9 -10 9 3 15 0 15 -10 0 -12 4 -13 20 -4 16 9 22 8 26 -5
4 -9 13 -14 20 -11 7 3 16 1 19 -4 3 -5 -4 -11 -15 -15 -11 -3 -20 -11 -20
-16 0 -5 -38 -9 -84 -9 -47 0 -88 -4 -91 -10 -7 -12 69 -13 201 -4 l89 7 -3
87 c-2 55 1 91 7 95 17 10 15 -200 -2 -214 -16 -12 -84 -20 -214 -23 -84 -3
-97 -7 -95 -29 1 -4 -12 -9 -28 -11 -17 -3 -30 -3 -30 -1 0 2 14 22 30 45 18
25 30 53 30 72 -1 28 -2 29 -12 11 -6 -11 -31 -42 -57 -68 -38 -39 -43 -49
-31 -57 12 -8 9 -10 -12 -10 -49 0 -36 39 37 119 36 39 65 74 66 79 0 4 2 17
5 30 2 12 -1 22 -6 22 -6 0 -10 -3 -10 -7 0 -5 -25 -35 -55 -68 -30 -33 -55
-65 -55 -71 0 -7 -10 -15 -22 -18 -22 -7 -22 -7 -3 -15 11 -5 -59 -8 -157 -8
-98 0 -175 4 -172 8 3 5 -2 6 -10 3 -23 -9 -19 10 6 32 19 17 21 17 15 2 -5
-14 -1 -18 17 -18 13 0 26 7 30 15 3 8 2 15 -2 15 -4 0 -9 32 -10 70 -3 66 6
88 24 58 11 -17 13 -68 3 -74 -14 -8 -11 -26 4 -18 10 6 10 4 0 -7 -16 -16
-17 -33 -2 -23 8 5 8 1 0 -14 -10 -19 -7 -20 101 -21 62 -1 109 2 104 6 -10
10 -12 10 -86 12 -54 1 -60 3 -60 22 0 16 4 19 23 14 l22 -7 -23 17 c-12 9
-20 20 -17 24 8 14 55 9 55 -5 0 -8 5 -14 11 -14 5 0 7 4 4 10 -3 5 1 20 9 32
11 15 16 18 17 8 0 -8 6 -4 12 10 6 14 17 31 24 38 22 23 14 33 -12 16 -16
-10 -50 -18 -92 -19 -60 -2 -63 -1 -37 10 26 11 22 12 -46 11 -73 -1 -75 -2
-78 -27 -2 -15 -16 -39 -33 -55 -16 -15 -29 -35 -29 -43 0 -10 10 -4 26 17 14
17 32 32 40 32 10 0 0 -16 -25 -42 -22 -24 -41 -46 -41 -50 0 -5 -8 -8 -17 -9
-12 0 -14 -2 -5 -6 8 -3 31 12 53 33 49 48 51 33 3 -19 -29 -32 -43 -39 -77
-40 l-42 -2 -3 76 -3 75 36 -4 c19 -2 42 1 50 8 18 15 20 -1 3 -18 -8 -8 -8
-12 -1 -12 21 0 34 27 25 51 -16 44 -1 73 46 84 35 9 39 12 24 21 -14 9 -9 12
30 18 26 4 50 11 53 16 3 4 35 8 71 9 36 0 75 3 85 6 15 5 19 1 19 -19 0 -23
-4 -26 -37 -28 -21 0 -46 -1 -55 0 -10 1 -18 -3 -18 -8 0 -6 -4 -10 -10 -10
-5 0 -10 6 -10 13 0 8 -14 12 -40 11 -38 -1 -72 -14 -37 -14 11 0 14 -5 10
-16 -5 -14 2 -16 63 -10 38 4 81 9 95 12 34 7 49 -13 51 -69 2 -36 5 -44 15
-35 7 6 13 19 13 29 0 10 30 49 66 86 l65 68 -4 57 c-5 70 6 89 13 21 5 -46 6
-48 38 -51z m2 88 c0 -5 -2 -10 -4 -10 -3 0 -8 5 -11 10 -3 6 -1 10 4 10 6 0
11 -4 11 -10z m750 0 c0 -5 -13 -10 -30 -10 -16 0 -30 5 -30 10 0 6 14 10 30
10 17 0 30 -4 30 -10z m215 0 c8 -13 -5 -13 -25 0 -13 8 -13 10 2 10 9 0 20
-4 23 -10z m-285 -10 c0 -5 -14 -10 -31 -10 -17 0 -28 4 -24 10 3 6 17 10 31
10 13 0 24 -4 24 -10z m-513 -16 c-3 -3 -12 -4 -19 -1 -8 3 -5 6 6 6 11 1 17
-2 13 -5z m3563 -8 c0 -10 9 -14 28 -13 24 2 27 -1 24 -25 -2 -14 2 -29 7 -33
15 -9 14 -58 -1 -74 -11 -11 -9 -13 10 -8 12 3 22 2 22 -2 0 -5 -10 -13 -22
-18 -22 -10 -22 -11 -3 -19 29 -12 55 -37 56 -54 0 -10 2 -11 6 -2 10 25 22
11 16 -22 l-5 -34 35 11 c20 6 33 15 30 20 -9 14 20 28 30 14 7 -9 10 -9 14 1
9 22 24 13 17 -12 -4 -17 0 -27 13 -35 14 -8 -2 -11 -67 -11 -47 0 -137 -3
-201 -6 l-116 -6 -2 165 -2 166 28 4 c61 9 83 7 83 -7z m-2943 -10 c47 -1 72
-16 27 -16 -39 0 -64 -16 -38 -23 30 -9 392 -13 400 -4 4 4 -22 7 -57 7 -99 0
-108 18 -11 22 l82 3 0 -30 c0 -29 -2 -30 -43 -30 -43 -1 -198 -17 -397 -41
-63 -8 -135 -14 -161 -14 -26 0 -61 -3 -78 -6 -29 -6 -31 -9 -31 -49 0 -48 -9
-55 -71 -55 l-39 0 0 80 c0 47 4 80 10 80 6 0 10 -14 10 -31 0 -27 3 -30 28
-27 36 4 38 39 2 49 -24 7 -24 7 -3 8 13 1 28 10 35 21 11 17 24 20 90 20 43
0 78 4 78 9 0 5 -37 10 -82 13 -46 2 -92 9 -103 16 -15 8 19 10 145 5 91 -3
184 -6 207 -7z m-1731 -22 c-9 -8 -21 -12 -27 -8 -13 7 7 24 29 24 10 0 10 -4
-2 -16z m1944 6 c11 -7 -2 -10 -42 -10 -32 0 -58 4 -58 10 0 13 80 13 100 0z
m1123 -40 c22 -26 22 -25 -13 -28 -26 -2 -30 1 -30 23 0 30 19 32 43 5z
m-2903 -44 c0 -32 2 -33 33 -30 49 6 57 11 57 39 0 14 4 25 9 25 14 0 21 -43
9 -57 -17 -21 4 -35 51 -37 53 -1 54 -16 1 -16 -42 0 -57 -19 -17 -21 l22 -2
-22 -4 c-38 -7 -26 -23 20 -24 32 -1 26 -4 -28 -10 -38 -4 -88 -10 -111 -13
l-41 -5 -7 91 c-3 49 -3 94 0 99 10 18 24 -2 24 -35z m284 19 c4 -11 -1 -15
-17 -14 -12 0 -16 3 -9 6 6 2 10 9 6 14 -3 5 -1 9 4 9 6 0 12 -7 16 -15z
m-1106 -4 c17 -11 -52 -23 -76 -13 -12 5 -8 8 18 13 19 4 37 7 40 8 3 0 11 -3
18 -8z m107 -11 c-28 -12 -65 -12 -65 0 0 6 19 10 43 9 32 0 37 -2 22 -9z
m932 -6 c-3 -3 -12 -4 -19 -1 -8 3 -5 6 6 6 11 1 17 -2 13 -5z m2603 -3 c0
-11 -26 -22 -34 -14 -12 12 -5 23 14 23 11 0 20 -4 20 -9z m-4978 -42 l33 -30
-42 23 c-24 13 -43 26 -43 31 0 15 21 6 52 -24z m6785 9 c-3 -8 -6 -5 -6 6 -1
11 2 17 5 13 3 -3 4 -12 1 -19z m-4464 5 c-7 -2 -21 -2 -30 0 -10 3 -4 5 12 5
17 0 24 -2 18 -5z m1190 -90 c4 -10 13 -33 21 -51 9 -18 12 -30 7 -28 -4 3 -6
-5 -3 -19 3 -17 12 -25 31 -28 15 -2 7 -5 -20 -6 -25 0 -67 -4 -92 -7 l-46 -7
6 54 c3 30 11 57 17 61 7 5 6 8 -4 8 -8 0 -4 6 10 13 21 11 27 11 37 -2 11
-14 12 -13 13 7 0 26 15 29 23 5z m-503 -3 c8 -5 11 -10 5 -10 -5 0 -17 5 -25
10 -8 5 -10 10 -5 10 6 0 17 -5 25 -10z m587 4 c-3 -3 -12 -4 -19 -1 -8 3 -5
6 6 6 11 1 17 -2 13 -5z m-602 -24 c3 -5 1 -10 -4 -10 -6 0 -11 5 -11 10 0 6
2 10 4 10 3 0 8 -4 11 -10z m-48 -32 c-3 -8 -6 -5 -6 6 -1 11 2 17 5 13 3 -3
4 -12 1 -19z m3581 -43 c-18 -27 -32 -36 -64 -41 -23 -3 -50 -4 -60 -1 -14 3
-13 5 6 6 14 0 50 21 80 46 60 49 76 44 38 -10z m-2938 6 c0 -6 -4 -13 -10
-16 -5 -3 -10 1 -10 9 0 9 5 16 10 16 6 0 10 -4 10 -9z m1500 -41 c0 -5 -5
-10 -11 -10 -5 0 -7 5 -4 10 3 6 8 10 11 10 2 0 4 -4 4 -10z m-470 -10 c0 -5
-13 -10 -29 -10 -23 0 -30 -5 -33 -25 -4 -17 -1 -25 8 -25 8 0 11 6 8 15 -4 8
-1 15 5 15 6 0 11 -9 11 -20 0 -14 -7 -20 -21 -20 -12 0 -19 -5 -16 -12 2 -7
11 -12 21 -10 24 4 19 -17 -6 -27 -33 -12 -38 -6 -38 49 0 52 5 59 54 71 17 4
32 7 34 8 1 1 2 -3 2 -9z m-100 -60 c0 -5 -5 -10 -11 -10 -5 0 -7 5 -4 10 3 6
8 10 11 10 2 0 4 -4 4 -10z m-1475 -30 c-11 -5 -45 -8 -75 -8 l-55 1 55 7 c30
4 64 7 75 8 l20 1 -20 -9z m112 4 c-3 -3 -12 -4 -19 -1 -8 3 -5 6 6 6 11 1 17
-2 13 -5z m1360 -26 c-3 -8 -6 -5 -6 6 -1 11 2 17 5 13 3 -3 4 -12 1 -19z
m-1804 5 c-7 -2 -19 -2 -25 0 -7 3 -2 5 12 5 14 0 19 -2 13 -5z m-2586 -55
c-3 -8 -6 -5 -6 6 -1 11 2 17 5 13 3 -3 4 -12 1 -19z m6898 -20 c-88 -21 -171
-42 -185 -46 -16 -4 4 -9 60 -12 47 -4 -30 -4 -170 -2 -140 2 -257 6 -259 8
-2 2 53 4 122 4 124 0 222 16 467 74 30 7 71 13 90 14 19 0 -37 -18 -125 -40z
m-3022 -85 c-13 -2 -33 -2 -45 0 -13 2 -3 4 22 4 25 0 35 -2 23 -4z m1300
-100 c-7 -2 -21 -2 -30 0 -10 3 -4 5 12 5 17 0 24 -2 18 -5z m157 -14 c0 -6
17 -8 48 -5 36 4 40 3 17 -3 -31 -9 -26 -14 12 -12 26 3 41 -18 22 -30 -10 -6
-7 -9 11 -10 14 0 34 -3 45 -5 109 -22 275 -31 275 -14 0 12 47 13 54 1 4 -5
-4 -7 -16 -5 -21 4 -21 4 1 -6 17 -7 34 -8 54 0 18 6 35 6 46 1 14 -8 13 -11
-9 -19 -17 -7 1 -8 63 -4 61 3 87 1 87 -7 0 -6 -9 -11 -20 -11 -11 0 -20 -5
-20 -10 0 -10 -20 -8 -68 6 -16 4 -22 3 -20 -6 2 -7 -3 -15 -9 -17 -7 -3 -13
1 -13 9 0 10 -21 13 -81 14 -48 1 -76 -2 -67 -7 8 -6 -2 -9 -29 -9 -24 0 -43
4 -43 9 0 5 -7 12 -16 15 -8 3 -12 2 -9 -3 3 -5 1 -13 -5 -16 -6 -4 -9 -1 -8
6 2 6 -3 14 -9 16 -7 3 -13 0 -13 -6 0 -6 -4 -11 -8 -11 -5 0 -9 7 -9 15 0 8
6 15 14 15 7 0 13 5 13 11 0 7 -14 8 -42 3 -24 -4 -65 -7 -91 -6 -30 1 -46 -2
-42 -8 3 -5 12 -10 20 -10 7 0 15 -6 18 -13 6 -16 -39 -11 -61 6 -16 12 -162
26 -162 15 0 -5 24 -8 53 -9 60 -1 81 -8 85 -29 3 -12 1 -13 -9 -2 -18 17 -30
15 -22 -5 4 -11 3 -14 -6 -9 -17 11 -63 -2 -56 -15 5 -6 12 -6 21 2 12 10 16
8 21 -9 3 -12 9 -22 14 -22 13 0 11 -28 -2 -36 -6 -3 -14 -2 -18 3 -8 12 -83
25 -76 13 3 -5 -8 -2 -25 6 -16 9 -40 14 -52 13 -13 -2 -28 0 -34 3 -6 4 -28
8 -48 10 -21 1 -40 6 -43 11 -3 5 22 7 56 5 42 -2 61 1 61 9 0 13 35 27 49 19
4 -3 28 1 52 8 l44 14 -62 1 c-38 1 -63 5 -63 12 0 6 9 8 20 4 11 -3 20 -2 20
4 0 5 -8 12 -17 15 -10 3 27 3 82 1 55 -2 109 0 120 6 17 8 15 8 -7 4 -16 -3
-28 -1 -28 5 0 5 -7 10 -16 10 -8 0 -12 -4 -9 -10 7 -11 -8 -14 -17 -4 -4 3
-39 7 -80 10 -140 7 -210 5 -202 -8 4 -6 -3 -5 -15 2 -12 6 -19 16 -15 22 5 8
-2 9 -22 4 -35 -9 -31 -9 -79 -6 -22 1 -32 4 -23 7 9 2 24 16 33 30 l17 25
161 -6 c88 -4 164 -9 169 -12 4 -3 14 -2 20 2 9 6 5 10 -12 15 l-25 7 28 1
c15 1 27 -4 27 -10z m-453 -5 c-3 -3 -12 -4 -19 -1 -8 3 -5 6 6 6 11 1 17 -2
13 -5z m50 -20 c-3 -3 -12 -4 -19 -1 -8 3 -5 6 6 6 11 1 17 -2 13 -5z m238
-94 c13 -6 15 -9 5 -9 -8 0 -22 4 -30 9 -18 12 -2 12 25 0z m399 -5 c4 -10 -1
-15 -14 -15 -13 0 -18 5 -14 15 4 8 10 15 14 15 4 0 10 -7 14 -15z m769 8 c-7
-2 -19 -2 -25 0 -7 3 -2 5 12 5 14 0 19 -2 13 -5z m-239 -12 c3 -5 -7 -11 -23
-13 -21 -3 -28 -1 -24 9 6 15 39 18 47 4z m236 -11 c20 -6 14 -8 -27 -9 -29
-1 -53 3 -53 9 0 12 44 12 80 0z m-43 -36 c-3 -3 -12 -4 -19 -1 -8 3 -5 6 6 6
11 1 17 -2 13 -5z m-4660 -48 c-5 -14 -52 -25 -68 -15 -15 9 -14 11 21 26 21
8 16 9 -27 5 -34 -3 -53 -1 -53 6 0 17 72 19 103 2 15 -8 26 -19 24 -24z
m4796 37 c-7 -2 -19 -2 -25 0 -7 3 -2 5 12 5 14 0 19 -2 13 -5z m-963 -42 c0
-5 -11 -11 -25 -13 -24 -5 -32 2 -18 15 9 10 43 8 43 -2z m35 -1 c-3 -5 -11
-10 -16 -10 -6 0 -7 5 -4 10 3 6 11 10 16 10 6 0 7 -4 4 -10z m-3848 -17 c-9
-9 -20 -13 -24 -9 -4 4 -1 11 7 16 25 16 35 11 17 -7z m3573 0 c14 -2 32 -7
40 -10 8 -3 31 -8 50 -10 35 -4 47 -9 39 -17 -10 -10 -184 21 -181 32 3 15
-11 15 -25 1 -6 -6 -17 -8 -25 -3 -17 11 28 25 57 17 11 -2 31 -7 45 -10z
m170 2 c-7 -9 -15 -13 -17 -11 -7 7 7 26 19 26 6 0 6 -6 -2 -15z m-5043 -27
c-3 -8 -6 -5 -6 6 -1 11 2 17 5 13 3 -3 4 -12 1 -19z m5378 13 c-6 -6 -25 -6
-45 -1 l-35 8 45 1 c27 1 40 -3 35 -8z m-275 -33 c0 -3 -16 -1 -35 5 -20 6
-31 13 -24 17 11 8 59 -10 59 -22z m317 26 c-3 -3 -12 -4 -19 -1 -8 3 -5 6 6
6 11 1 17 -2 13 -5z m-731 -34 c8 0 14 3 14 8 0 10 81 9 98 -1 7 -5 22 -5 33
-2 28 9 111 -4 104 -16 -8 -12 -3 -11 30 1 17 7 24 7 20 0 -4 -6 9 -11 32 -11
87 -3 122 -8 140 -18 17 -10 17 -11 -4 -17 -13 -3 -23 -10 -23 -15 0 -5 -10
-9 -22 -9 -17 0 -19 -3 -9 -9 8 -5 9 -11 3 -15 -6 -3 -18 4 -26 16 -9 12 -19
18 -23 14 -5 -5 -2 -11 5 -13 16 -6 15 -21 -2 -39 -22 -22 -32 -17 -11 6 16
17 16 20 2 20 -9 0 -18 -4 -22 -10 -3 -5 -12 -7 -20 -3 -8 3 -15 0 -15 -6 0
-12 -63 -3 -68 11 -2 4 -8 8 -13 8 -6 0 -8 -4 -5 -9 4 -5 -3 -7 -15 -4 -16 5
-18 8 -7 15 9 6 3 7 -17 3 -35 -8 -34 -8 -62 -6 -13 0 -23 6 -23 12 0 7 10 9
26 5 l26 -7 -23 29 c-15 18 -27 25 -31 18 -4 -6 0 -14 10 -18 22 -8 4 -10 -25
-2 -27 7 -30 24 -5 25 13 0 14 2 2 6 -8 3 -19 11 -23 17 -6 7 -7 4 -3 -6 4
-13 0 -18 -14 -18 -12 0 -17 5 -14 14 3 9 -5 15 -26 20 -21 4 -29 10 -24 18 6
9 9 9 12 0 2 -7 10 -12 18 -12z m-4656 -125 c11 -73 58 -349 66 -387 3 -16 1
-28 -4 -28 -5 0 -16 44 -25 98 -9 53 -24 140 -33 192 -17 102 -20 125 -28 210
-5 52 -4 53 5 15 5 -22 14 -67 19 -100z m1050 126 c-26 -15 -66 -24 -55 -13 6
5 19 12 30 15 32 8 41 7 25 -2z m243 -8 c-7 -2 -21 -2 -30 0 -10 3 -4 5 12 5
17 0 24 -2 18 -5z m-56 -9 c-3 -3 -12 -4 -19 -1 -8 3 -5 6 6 6 11 1 17 -2 13
-5z m125 -11 c-6 -2 -9 -9 -6 -15 4 -6 -3 -5 -16 2 -12 6 -28 9 -36 6 -8 -3
-14 -1 -14 4 0 6 19 10 43 9 23 0 36 -3 29 -6z m3245 1 c-3 -3 -12 -4 -19 -1
-8 3 -5 6 6 6 11 1 17 -2 13 -5z m53 -5 c0 -11 -27 -12 -34 -1 -2 4 4 9 15 9
10 1 19 -2 19 -8z m-3242 -27 c6 -18 -15 -14 -22 4 -4 10 -1 14 6 12 6 -2 14
-10 16 -16z m3732 -28 c0 -2 -9 -4 -20 -4 -11 0 -20 4 -20 9 0 5 9 7 20 4 11
-3 20 -7 20 -9z m-40 -44 c20 -6 16 -8 -23 -9 -30 -1 -46 3 -42 9 7 11 29 11
65 0z m-388 -12 c22 1 49 -3 61 -7 17 -7 10 -9 -31 -12 -28 -2 -52 0 -52 4 0
5 -5 5 -11 2 -18 -12 -1 -18 53 -20 66 -3 169 -23 186 -37 15 -13 16 4 0 20
-11 11 0 11 81 3 10 -1 11 -4 2 -15 -8 -10 -9 -16 -1 -21 5 -3 10 -1 10 5 0 6
11 5 30 -5 26 -13 29 -14 24 0 -4 10 0 15 11 15 11 0 15 -5 11 -15 -7 -18 29
-35 77 -35 33 -1 72 -22 60 -33 -3 -4 -12 -2 -20 4 -10 9 -13 8 -13 -5 0 -9
-8 -16 -17 -16 -14 0 -15 2 -4 9 7 5 10 14 7 20 -9 14 -56 14 -56 0 0 -6 7 -9
15 -5 18 6 18 5 5 -28 -7 -20 -6 -27 7 -34 13 -8 11 -10 -10 -14 -15 -3 -24
-2 -22 2 3 4 -2 13 -11 20 -8 7 -13 19 -10 27 7 16 -10 18 -20 1 -4 -6 1 -17
10 -24 24 -17 12 -34 -24 -34 -22 0 -28 4 -24 15 4 8 1 15 -6 15 -25 0 -3 -35
28 -45 43 -12 44 -39 1 -30 -17 4 -29 3 -26 -2 3 -4 -1 -17 -9 -28 -8 -10 -14
-13 -14 -6 0 8 -8 10 -22 6 -21 -5 -21 -5 -6 8 15 12 14 14 -15 26 -18 7 -45
12 -60 11 -17 -1 -34 5 -40 15 -7 9 -22 17 -35 18 -12 1 -21 6 -19 12 2 5 11
9 20 7 11 -2 15 2 11 13 -3 8 -11 15 -16 15 -6 0 -7 8 -4 17 6 14 3 14 -15 -3
-12 -10 -19 -14 -16 -7 4 6 3 14 -3 18 -5 3 -10 2 -10 -3 0 -6 -15 -6 -40 0
-42 11 -53 24 -20 24 11 0 20 -4 20 -8 0 -4 9 -8 20 -8 11 0 20 5 20 10 0 6 6
10 13 9 25 -3 33 2 34 21 1 11 -2 18 -7 15 -5 -3 -12 0 -15 6 -4 5 -13 8 -21
5 -8 -3 -14 -2 -14 3 0 10 -48 25 -67 22 -7 -1 -13 3 -13 10 0 7 -11 10 -32 6
-18 -3 -27 -3 -20 0 6 2 10 9 6 14 -3 5 1 9 8 9 8 1 5 7 -7 16 -20 16 -19 16
4 9 13 -4 42 -7 63 -7z m-3337 -38 c-3 -5 -12 -10 -18 -10 -7 0 -6 4 3 10 19
12 23 12 15 0z m-45 -28 c0 -22 -96 -47 -120 -32 -10 6 -6 10 16 15 16 4 43
11 59 15 41 11 45 11 45 2z m40 4 c0 -2 -7 -7 -16 -10 -8 -3 -12 -2 -9 4 6 10
25 14 25 6z m280 -27 c23 0 23 -1 5 -9 -11 -5 -14 -9 -7 -9 16 -1 16 -28 -1
-34 -18 -7 -47 12 -29 20 18 7 15 20 -8 26 -11 3 -20 1 -20 -4 0 -5 -4 -9 -10
-9 -5 0 -7 7 -3 16 4 10 13 14 27 10 11 -3 32 -6 46 -7z m1600 -9 c-8 -5 -17
-7 -19 -4 -3 3 1 9 9 14 8 5 17 7 19 4 3 -3 -1 -9 -9 -14z m-1810 -4 c0 -3 -4
-8 -10 -11 -5 -3 -10 -1 -10 4 0 6 5 11 10 11 6 0 10 -2 10 -4z m3907 -12 c-3
-3 -12 -4 -19 -1 -8 3 -5 6 6 6 11 1 17 -2 13 -5z m-3757 -14 c0 -5 -5 -10
-11 -10 -5 0 -7 5 -4 10 3 6 8 10 11 10 2 0 4 -4 4 -10z m3694 -26 c3 -8 1
-14 -4 -14 -6 0 -10 5 -10 10 0 6 -5 9 -11 8 -6 -2 -13 2 -16 9 -3 7 3 10 16
6 11 -3 22 -11 25 -19z m66 5 c22 -8 22 -8 -7 -4 -19 2 -33 0 -35 -7 -3 -7 -7
-5 -11 5 -7 19 11 21 53 6z m75 -18 c3 -6 -3 -15 -14 -20 -25 -14 -41 -14 -41
0 0 6 7 8 16 5 12 -4 15 -2 10 9 -6 16 19 21 29 6z m-195 -11 c0 -5 -2 -10 -4
-10 -3 0 -8 5 -11 10 -3 6 -1 10 4 10 6 0 11 -4 11 -10z m-476 -49 c3 -5 15
-7 26 -4 13 4 20 0 20 -10 0 -12 -7 -13 -41 -6 -22 5 -44 7 -50 4 -5 -3 -6 1
-3 9 7 17 39 22 48 7z m-3274 -11 c0 -5 -2 -10 -4 -10 -3 0 -8 5 -11 10 -3 6
-1 10 4 10 6 0 11 -4 11 -10z m3347 -14 c-3 -7 0 -13 6 -13 66 2 74 -14 9 -17
-38 -2 -39 -1 -29 21 11 25 23 32 14 9z m123 -36 c0 -5 -10 -10 -22 -9 -22 0
-22 1 -3 9 11 5 21 9 23 9 1 1 2 -3 2 -9z m155 -10 c3 -5 1 -10 -4 -10 -6 0
-11 5 -11 10 0 6 2 10 4 10 3 0 8 -4 11 -10z m-318 -6 c-3 -3 -12 -4 -19 -1
-8 3 -5 6 6 6 11 1 17 -2 13 -5z m-13 -23 c4 -5 -4 -7 -16 -4 -22 4 -22 3 2
-11 28 -17 19 -22 -11 -6 -10 6 -19 15 -19 20 0 13 37 13 44 1z m107 -3 c17
-11 23 -10 26 0 3 6 9 10 14 6 14 -9 10 -24 -7 -24 -8 0 -12 -4 -9 -10 3 -5
16 -10 28 -10 14 0 18 -3 11 -10 -8 -8 -19 -8 -38 0 -40 15 -55 11 -23 -6 32
-18 35 -24 6 -17 -12 4 -25 0 -30 -8 -7 -11 -9 -9 -9 8 0 17 -4 21 -17 16 -10
-4 -21 -11 -25 -17 -4 -6 -8 -1 -8 12 0 13 6 22 16 22 9 0 12 5 8 11 -5 8 1
10 20 7 14 -3 29 -1 32 3 3 5 -2 9 -10 9 -9 0 -16 5 -16 10 0 13 6 13 31 -2z
m117 -4 c18 -8 34 -19 37 -25 9 -13 -44 8 -61 26 -19 19 -15 19 24 -1z m-3417
-31 c13 -16 12 -17 -3 -4 -17 13 -22 21 -14 21 2 0 10 -8 17 -17z m747 -34
c37 -23 78 -48 90 -56 31 -19 22 -27 -9 -10 -41 22 -159 99 -159 103 0 9 13 2
78 -37z m2725 -29 c6 0 8 -3 5 -6 -8 -7 -61 21 -78 42 -8 9 3 5 24 -10 21 -14
43 -26 49 -26z m-265 18 c7 -10 20 -18 29 -18 9 0 13 -3 10 -7 -9 -9 -88 28
-81 38 8 13 27 6 42 -13z m188 -5 c-7 -7 -26 7 -26 19 0 6 6 6 15 -2 9 -7 13
-15 11 -17z m-3346 3 c0 -2 -7 -7 -16 -10 -8 -3 -12 -2 -9 4 6 10 25 14 25 6z
m3298 -33 c-12 -14 -38 -18 -38 -5 0 13 7 18 29 18 15 0 17 -3 9 -13z m-3288
-8 c0 -8 -2 -15 -4 -15 -2 0 -6 7 -10 15 -3 8 -1 15 4 15 6 0 10 -7 10 -15z
m3340 5 c0 -12 -28 -25 -36 -17 -9 9 6 27 22 27 8 0 14 -5 14 -10z m-2010 -20
c0 -5 -4 -10 -9 -10 -6 0 -13 5 -16 10 -3 6 1 10 9 10 9 0 16 -4 16 -10z m35
-20 c3 -5 1 -10 -4 -10 -6 0 -11 5 -11 10 0 6 2 10 4 10 3 0 8 -4 11 -10z
m-1355 -4 c0 -2 -8 -10 -17 -17 -16 -13 -17 -12 -4 4 13 16 21 21 21 13z
m1404 -35 c3 -5 -5 -8 -18 -7 -13 0 -22 4 -19 9 6 10 31 9 37 -2z m-1404 -21
c0 -5 -4 -10 -10 -10 -5 0 -10 5 -10 10 0 6 5 10 10 10 6 0 10 -4 10 -10z
m-152 -25 c-3 -3 -9 2 -12 12 -6 14 -5 15 5 6 7 -7 10 -15 7 -18z m111 2 c0
-9 -2 -8 -6 1 -2 6 -10 9 -15 6 -7 -4 -8 -2 -4 5 9 13 26 5 25 -12z m3318 -13
c-3 -3 -12 -4 -19 -1 -8 3 -5 6 6 6 11 1 17 -2 13 -5z m98 -4 c-3 -5 -12 -10
-18 -10 -7 0 -6 4 3 10 19 12 23 12 15 0z m-2415 -30 c0 -5 -7 -10 -16 -10 -8
0 -12 5 -9 10 3 6 10 10 16 10 5 0 9 -4 9 -10z m496 1 c10 8 14 8 14 0 0 -6
-5 -11 -10 -11 -6 0 -10 -6 -8 -13 2 -7 -1 -15 -7 -17 -5 -3 -10 9 -11 25 -1
17 0 24 3 17 4 -10 8 -10 19 -1z m-1491 -41 c3 -5 2 -10 -4 -10 -5 0 -13 5
-16 10 -3 6 -2 10 4 10 5 0 13 -4 16 -10z m55 6 c0 -3 -4 -8 -10 -11 -5 -3
-10 -1 -10 4 0 6 5 11 10 11 6 0 10 -2 10 -4z m85 -44 c-3 -3 -11 0 -18 7 -9
10 -8 11 6 5 10 -3 15 -9 12 -12z m1316 -9 c13 -16 12 -17 -3 -4 -17 13 -22
21 -14 21 2 0 10 -8 17 -17z m-1342 -36 c1 -4 -5 -2 -13 5 -7 7 -11 19 -8 27
4 11 7 10 13 -5 4 -10 8 -23 8 -27z m-56 9 c4 -10 1 -13 -9 -9 -7 3 -14 9 -14
14 0 14 17 10 23 -5z m1326 -7 c-15 -9 -32 -2 -24 11 3 5 13 6 21 3 12 -4 13
-8 3 -14z m-1325 -120 c-9 -16 16 -39 42 -39 13 0 24 -4 24 -9 0 -6 -12 -6
-31 -1 -36 11 -33 8 -48 37 -15 29 -14 34 4 27 8 -4 12 -10 9 -15z m146 -31
c0 -17 -15 -7 -27 18 -12 26 -12 26 7 9 11 -10 20 -22 20 -27z m20 7 c0 -5 -5
-3 -10 5 -5 8 -10 20 -10 25 0 6 5 3 10 -5 5 -8 10 -19 10 -25z m1025 26 c3
-5 0 -13 -6 -17 -7 -4 -9 -3 -5 4 3 5 0 13 -6 15 -9 4 -10 6 -1 6 6 1 14 -3
18 -8z m105 -21 c-8 -5 -19 -10 -25 -10 -5 0 -3 5 5 10 8 5 20 10 25 10 6 0 3
-5 -5 -10z m-1207 -25 c-3 -9 -8 -14 -10 -11 -3 3 -2 9 2 15 9 16 15 13 8 -4z
m157 -1 c0 -8 -5 -12 -10 -9 -6 4 -8 11 -5 16 9 14 15 11 15 -7z m-80 -4 c0
-5 -4 -10 -10 -10 -5 0 -10 5 -10 10 0 6 5 10 10 10 6 0 10 -4 10 -10z m-185
-10 c3 -5 1 -10 -4 -10 -6 0 -11 5 -11 10 0 6 2 10 4 10 3 0 8 -4 11 -10z
m168 -35 c13 -18 14 -25 5 -25 -7 -1 2 -7 21 -16 19 -8 36 -12 39 -9 3 2 -6 9
-19 14 -13 5 -18 10 -10 10 10 1 7 7 -7 20 -12 10 -19 21 -16 24 8 7 44 -24
44 -39 0 -6 11 -23 25 -38 13 -14 20 -26 15 -26 -5 0 -11 4 -14 9 -3 5 -25 14
-48 20 -57 15 -88 38 -69 51 12 7 13 11 1 24 -11 14 -11 16 1 11 8 -3 22 -17
32 -30z m52 25 c3 -5 1 -10 -4 -10 -6 0 -11 5 -11 10 0 6 2 10 4 10 3 0 8 -4
11 -10z m1130 0 c-3 -5 -12 -10 -18 -10 -7 0 -6 4 3 10 19 12 23 12 15 0z
m-995 -10 c0 -5 -7 -7 -15 -4 -8 4 -15 8 -15 10 0 2 7 4 15 4 8 0 15 -4 15
-10z m805 0 c3 -5 -3 -10 -15 -10 -12 0 -18 5 -15 10 3 6 10 10 15 10 5 0 12
-4 15 -10z m130 0 c3 -5 2 -10 -4 -10 -5 0 -13 5 -16 10 -3 6 -2 10 4 10 5 0
13 -4 16 -10z m-179 -9 c-4 -5 -1 -11 5 -13 7 -2 6 -8 -4 -16 -10 -9 -17 -10
-22 -2 -3 5 -2 10 4 10 6 0 8 7 5 15 -4 8 -1 15 6 15 6 0 9 -4 6 -9z m-51 -21
c3 -6 -1 -7 -9 -4 -18 7 -21 14 -7 14 6 0 13 -4 16 -10z m150 -20 c-4 -13 -1
-17 11 -16 9 0 19 -6 21 -14 3 -11 2 -12 -4 -3 -5 7 -19 11 -31 8 -18 -3 -21
-1 -13 13 4 9 6 23 3 31 -3 9 0 11 7 7 7 -4 9 -16 6 -26z m-1028 -36 c56 -3
56 -3 39 -20 -14 -14 -20 -13 -56 9 -22 13 -37 27 -33 30 4 4 10 2 14 -5 4 -7
20 -13 36 -14z m-1650 -6 c-3 -8 -6 -5 -6 6 -1 11 2 17 5 13 3 -3 4 -12 1 -19z
m2118 12 c3 -5 3 -15 -1 -21 -5 -8 -9 -8 -14 1 -5 8 -10 8 -14 2 -3 -6 8 -15
26 -21 23 -8 29 -14 21 -22 -9 -9 -16 -7 -29 5 -9 10 -23 15 -30 12 -17 -6
-17 -5 -4 28 10 26 34 35 45 16z m645 0 c0 -5 -5 -10 -11 -10 -5 0 -7 5 -4 10
3 6 8 10 11 10 2 0 4 -4 4 -10z m-951 -56 c20 -18 30 -34 24 -34 -7 0 -13 -4
-13 -9 0 -5 9 -7 20 -4 20 5 77 -24 66 -34 -3 -3 -13 2 -22 12 -10 10 -27 15
-41 12 -12 -2 -28 2 -34 9 -8 10 -8 14 0 14 17 0 13 18 -6 25 -35 11 -54 32
-46 51 4 12 8 14 11 5 2 -7 21 -28 41 -47z m401 52 c0 -3 -4 -8 -10 -11 -5 -3
-10 -1 -10 4 0 6 5 11 10 11 6 0 10 -2 10 -4z m-65 -16 c3 -5 1 -10 -4 -10 -6
0 -11 5 -11 10 0 6 2 10 4 10 3 0 8 -4 11 -10z m90 -9 c-3 -6 -11 -11 -16 -11
-5 0 -4 6 3 14 14 16 24 13 13 -3z m105 -2 c0 -4 -7 -6 -15 -3 -8 4 -15 10
-15 15 0 4 7 6 15 3 8 -4 15 -10 15 -15z m342 -2 c-7 -8 -9 -17 -5 -20 3 -4 1
-7 -5 -7 -15 0 -15 6 -1 32 6 11 13 17 16 14 3 -3 1 -12 -5 -19z m-505 -16 c1
-11 -5 -22 -14 -25 -13 -5 -14 -4 -3 9 10 12 10 15 -1 15 -11 0 -11 2 1 10 8
5 15 10 15 10 1 0 1 -9 2 -19z m-482 -1 c3 -6 -4 -10 -17 -10 -18 0 -20 2 -8
10 19 12 18 12 25 0z m155 6 c0 -3 -4 -8 -10 -11 -5 -3 -10 -1 -10 4 0 6 5 11
10 11 6 0 10 -2 10 -4z m50 -5 c0 -5 -7 -12 -16 -15 -21 -8 -24 -8 -24 5 0 5
5 7 10 4 6 -3 10 -1 10 4 0 6 5 11 10 11 6 0 10 -4 10 -9z m465 -1 c3 -5 1
-10 -4 -10 -6 0 -11 5 -11 10 0 6 2 10 4 10 3 0 8 -4 11 -10z m-605 -10 c0 -5
-5 -10 -11 -10 -5 0 -7 -5 -3 -12 5 -7 3 -8 -6 -3 -7 4 -16 2 -21 -6 -4 -7
-11 -10 -15 -6 -4 4 3 16 16 27 25 22 40 26 40 10z m298 -30 c13 0 14 2 4 9
-11 6 -10 10 4 15 21 8 28 2 21 -19 -13 -32 -77 -12 -77 24 0 11 5 9 16 -7 8
-12 23 -22 32 -22z m396 8 c-2 -3 -18 -9 -34 -13 -17 -4 -30 -13 -30 -22 0
-13 -2 -13 -15 1 -21 21 -20 23 25 30 32 5 38 9 33 23 -6 15 -5 16 9 3 9 -8
14 -18 12 -22z m-457 -10 c-3 -7 -5 -2 -5 12 0 14 2 19 5 13 2 -7 2 -19 0 -25z
m533 12 c0 -4 -8 -14 -17 -21 -16 -13 -17 -12 -4 4 21 27 -6 21 -35 -8 -29
-29 -31 -30 -31 -10 0 8 4 15 9 15 13 0 38 26 32 32 -3 3 7 3 21 1 14 -3 25
-9 25 -13z m-885 0 c3 -5 1 -10 -4 -10 -6 0 -11 5 -11 10 0 6 2 10 4 10 3 0 8
-4 11 -10z m145 6 c0 -3 -4 -8 -10 -11 -5 -3 -10 -1 -10 4 0 6 5 11 10 11 6 0
10 -2 10 -4z m190 0 c0 -9 -30 -14 -35 -6 -4 6 3 10 14 10 12 0 21 -2 21 -4z
m280 -6 c0 -5 -5 -10 -11 -10 -5 0 -7 5 -4 10 3 6 8 10 11 10 2 0 4 -4 4 -10z
m394 -5 c3 -8 1 -15 -4 -15 -6 0 -10 7 -10 15 0 8 2 15 4 15 2 0 6 -7 10 -15z
m-964 -5 c0 -5 -2 -10 -4 -10 -3 0 -8 5 -11 10 -3 6 -1 10 4 10 6 0 11 -4 11
-10z m930 6 c0 -2 -7 -9 -15 -16 -13 -11 -14 -10 -9 4 5 14 24 23 24 12z
m-490 -11 c0 -2 -13 -11 -30 -20 -16 -9 -30 -12 -30 -7 0 4 12 13 28 19 15 6
28 11 30 12 1 1 2 -1 2 -4z m-168 -12 c-6 -2 -9 -10 -6 -15 4 -7 2 -8 -4 -4
-18 11 -14 26 6 25 10 0 12 -3 4 -6z m238 -19 c0 -2 -9 0 -20 6 -11 6 -20 13
-20 16 0 2 9 0 20 -6 11 -6 20 -13 20 -16z m-430 1 c14 -8 21 -14 15 -14 -5 0
-21 6 -35 14 -14 8 -20 14 -15 14 6 0 21 -6 35 -14z m160 5 c0 -5 -2 -10 -4
-10 -3 0 -8 5 -11 10 -3 6 -1 10 4 10 6 0 11 -4 11 -10z m220 0 c0 -5 -2 -10
-4 -10 -3 0 -8 5 -11 10 -3 6 -1 10 4 10 6 0 11 -4 11 -10z m420 0 c0 -5 -2
-10 -4 -10 -3 0 -8 5 -11 10 -3 6 -1 10 4 10 6 0 11 -4 11 -10z m-870 -10 c0
-5 -2 -10 -4 -10 -3 0 -8 5 -11 10 -3 6 -1 10 4 10 6 0 11 -4 11 -10z m300 0
c0 -5 -7 -7 -15 -4 -8 4 -15 8 -15 10 0 2 7 4 15 4 8 0 15 -4 15 -10z m60 -9
c0 -4 -11 -6 -25 -3 -14 2 -25 6 -25 8 0 2 11 4 25 4 14 0 25 -4 25 -9z m-110
-11 c0 -5 -2 -10 -4 -10 -3 0 -8 5 -11 10 -3 6 -1 10 4 10 6 0 11 -4 11 -10z
m267 4 c-3 -3 -12 -4 -19 -1 -8 3 -5 6 6 6 11 1 17 -2 13 -5z m-142 -25 c-18
-5 -31 -5 -33 1 -2 6 -9 7 -14 4 -6 -4 -8 -3 -5 3 3 5 23 7 44 4 l38 -4 -30
-8z m-2046 -92 c1 -10 -3 -16 -8 -13 -11 7 -20 53 -12 61 7 7 19 -23 20 -48z
m2536 43 c3 -5 -1 -10 -10 -10 -9 0 -13 5 -10 10 3 6 8 10 10 10 2 0 7 -4 10
-10z m850 -14 c21 -4 36 -19 31 -32 -3 -7 -1 -16 4 -19 14 -9 12 -25 -2 -25
-6 0 -8 3 -5 7 4 3 -7 14 -23 24 -17 11 -30 25 -30 33 0 8 -3 16 -7 19 -5 2
-1 2 7 -1 8 -2 20 -5 25 -6z m-1490 -6 c3 -6 -1 -7 -9 -4 -18 7 -21 14 -7 14
6 0 13 -4 16 -10z m605 6 c0 -2 -7 -7 -16 -10 -8 -3 -12 -2 -9 4 6 10 25 14
25 6z m106 -11 c-11 -8 -25 -15 -30 -15 -6 1 0 7 14 15 32 19 40 18 16 0z
m-751 -5 c3 -5 1 -10 -4 -10 -6 0 -11 5 -11 10 0 6 2 10 4 10 3 0 8 -4 11 -10z
m-8 -65 c0 -8 -4 -15 -9 -15 -10 0 -11 14 -1 23 9 10 10 9 10 -8z m98 -35 c3
-5 2 -10 -4 -10 -5 0 -13 5 -16 10 -3 6 -2 10 4 10 5 0 13 -4 16 -10z m-178
-36 c-3 -3 -12 -4 -19 -1 -8 3 -5 6 6 6 11 1 17 -2 13 -5z m166 -1 c-7 -2 -19
-2 -25 0 -7 3 -2 5 12 5 14 0 19 -2 13 -5z m-276 -89 c-3 -3 -12 -4 -19 -1 -8
3 -5 6 6 6 11 1 17 -2 13 -5z m2373 -74 c31 -24 59 -42 135 -84 11 -6 65 -41
120 -77 55 -36 119 -76 142 -89 24 -13 41 -25 39 -28 -3 -2 -31 12 -63 32 -32
19 -79 47 -105 61 -26 14 -88 51 -137 83 -49 31 -112 71 -140 87 -28 17 -53
35 -55 42 -7 17 22 5 64 -27z m-1210 15 c-7 -8 -20 -15 -29 -15 -11 0 -8 5 9
14 33 19 35 19 20 1z m-1140 -55 c0 -5 -2 -10 -4 -10 -3 0 -8 5 -11 10 -3 6
-1 10 4 10 6 0 11 -4 11 -10z m-130 -50 c0 -5 -5 -10 -11 -10 -5 0 -7 5 -4 10
3 6 8 10 11 10 2 0 4 -4 4 -10z m2955 -182 c24 -17 43 -34 40 -36 -4 -4 -95
58 -95 65 0 7 12 1 55 -29z"/>
<path d="M4248 3703 c7 -3 16 -2 19 1 4 3 -2 6 -13 5 -11 0 -14 -3 -6 -6z"/>
<path d="M4208 3693 c7 -3 16 -2 19 1 4 3 -2 6 -13 5 -11 0 -14 -3 -6 -6z"/>
<path d="M4088 3663 c7 -3 16 -2 19 1 4 3 -2 6 -13 5 -11 0 -14 -3 -6 -6z"/>
<path d="M3678 3563 c7 -3 16 -2 19 1 4 3 -2 6 -13 5 -11 0 -14 -3 -6 -6z"/>
<path d="M6315 3410 c-18 -8 -17 -9 8 -9 15 -1 27 4 27 9 0 12 -8 12 -35 0z"/>
<path d="M6488 3393 c7 -3 16 -2 19 1 4 3 -2 6 -13 5 -11 0 -14 -3 -6 -6z"/>
<path d="M5910 3310 c0 -5 7 -10 15 -10 8 0 15 5 15 10 0 6 -7 10 -15 10 -8 0
-15 -4 -15 -10z"/>
<path d="M5395 3441 l-30 -7 28 -7 c15 -4 32 -5 37 -2 5 3 29 10 52 14 l43 9
-50 0 c-27 0 -63 -3 -80 -7z"/>
<path d="M5555 3433 c-16 -3 -34 -8 -38 -13 -5 -4 13 -4 39 1 26 5 50 11 52
14 6 5 -3 5 -53 -2z"/>
<path d="M5340 3400 c0 -6 11 -8 28 -4 39 10 40 14 4 14 -18 0 -32 -5 -32 -10z"/>
<path d="M5720 3400 c-20 -7 -16 -8 23 -9 26 -1 47 4 47 9 0 12 -34 12 -70 0z"/>
<path d="M5288 3373 c12 -2 30 -2 40 0 9 3 -1 5 -23 4 -22 0 -30 -2 -17 -4z"/>
<path d="M5110 3350 c13 -9 13 -10 0 -10 -13 -1 -13 -2 0 -9 8 -5 47 -11 87
-13 57 -4 70 -3 66 8 -3 8 0 14 6 14 6 0 11 -4 11 -10 0 -5 5 -10 11 -10 5 0
8 4 4 9 -3 5 5 12 17 15 13 2 -11 3 -52 1 -41 -2 -85 -7 -97 -10 -14 -5 -23
-3 -23 3 0 6 15 13 33 15 20 2 12 4 -23 5 -39 1 -51 -1 -40 -8z"/>
<path d="M1545 3400 c-3 -6 1 -7 9 -4 18 7 21 14 7 14 -6 0 -13 -4 -16 -10z"/>
<path d="M5970 3139 c0 -6 -33 -46 -74 -88 -40 -42 -78 -86 -85 -98 -14 -27
-14 -63 -1 -63 6 0 10 4 10 9 0 5 36 44 80 88 75 74 80 82 80 121 0 23 -2 42
-5 42 -3 0 -5 -5 -5 -11z"/>
<path d="M5000 3073 c0 -19 11 -43 21 -43 13 0 11 14 -6 36 -8 10 -15 14 -15
7z"/>
<path d="M5178 2978 c-27 -29 -48 -60 -48 -70 0 -13 15 -1 50 37 28 30 50 62
50 70 0 8 -1 15 -2 15 -2 0 -24 -24 -50 -52z"/>
<path d="M5961 3000 c-7 -14 -44 -54 -82 -90 -53 -50 -69 -72 -69 -93 0 -15 4
-27 9 -27 10 0 141 133 154 156 5 8 7 29 5 47 l-3 32 -14 -25z"/>
<path d="M4771 2765 c-1 -30 -1 -30 50 -26 32 2 47 6 39 11 -8 5 10 11 46 15
96 11 86 15 -23 11 -73 -4 -103 -1 -107 7 -2 7 -5 -1 -5 -18z"/>
<path d="M6183 2663 c9 -2 23 -2 30 0 6 3 -1 5 -18 5 -16 0 -22 -2 -12 -5z"/>
<path d="M5935 2590 c3 -5 20 -10 36 -10 18 0 28 4 24 10 -3 6 -20 10 -36 10
-18 0 -28 -4 -24 -10z"/>
<path d="M5832 2569 c7 -5 36 -8 63 -8 60 1 50 6 -23 12 -32 2 -48 1 -40 -4z"/>
<path d="M5808 2538 c9 -9 15 -9 24 0 9 9 7 12 -12 12 -19 0 -21 -3 -12 -12z"/>
<path d="M5858 2533 c7 -3 16 -2 19 1 4 3 -2 6 -13 5 -11 0 -14 -3 -6 -6z"/>
<path d="M6018 2503 c7 -3 16 -2 19 1 4 3 -2 6 -13 5 -11 0 -14 -3 -6 -6z"/>
<path d="M2930 3200 c0 -5 5 -10 10 -10 6 0 10 5 10 10 0 6 -4 10 -10 10 -5 0
-10 -4 -10 -10z"/>
<path d="M3058 3123 c7 -3 16 -2 19 1 4 3 -2 6 -13 5 -11 0 -14 -3 -6 -6z"/>
<path d="M3270 3120 c0 -5 5 -10 11 -10 5 0 7 5 4 10 -3 6 -8 10 -11 10 -2 0
-4 -4 -4 -10z"/>
<path d="M2980 3014 c-30 -36 -67 -79 -82 -95 -16 -16 -28 -35 -28 -42 0 -7 7
-3 15 7 8 11 18 17 21 13 3 -3 -3 -18 -15 -33 -22 -28 -27 -44 -12 -44 5 0 18
19 29 43 11 23 45 70 76 105 36 40 56 72 56 87 0 14 -1 25 -2 25 -2 0 -28 -30
-58 -66z"/>
<path d="M3050 3045 c0 -10 7 -15 18 -13 21 4 19 22 -2 26 -10 2 -16 -3 -16
-13z"/>
<path d="M2765 3020 l-30 -8 33 -1 c17 0 32 4 32 9 0 6 -1 9 -2 9 -2 -1 -16
-5 -33 -9z"/>
<path d="M6862 2968 c5 -31 16 -48 32 -48 11 0 10 7 -2 35 -18 40 -34 46 -30
13z"/>
<path d="M3470 3010 c0 -27 3 -30 30 -30 34 0 49 22 30 45 -7 8 -23 15 -36 15
-20 0 -24 -5 -24 -30z"/>
<path d="M2300 3005 l0 -36 48 3 c45 3 47 4 47 33 0 29 -2 30 -47 33 l-48 3 0
-36z"/>
<path d="M5278 2423 c7 -3 16 -2 19 1 4 3 -2 6 -13 5 -11 0 -14 -3 -6 -6z"/>
<path d="M6098 2323 c6 -2 18 -2 25 0 6 3 1 5 -13 5 -14 0 -19 -2 -12 -5z"/>
<path d="M5530 2270 c-12 -7 -10 -9 7 -7 12 0 19 5 17 9 -6 10 -6 10 -24 -2z"/>
<path d="M5479 2093 c-12 -15 -12 -16 6 -9 11 5 25 9 32 9 16 0 5 17 -11 17
-8 0 -20 -8 -27 -17z"/>
<path d="M5638 2073 c7 -3 16 -2 19 1 4 3 -2 6 -13 5 -11 0 -14 -3 -6 -6z"/>
<path d="M5620 1939 c0 -5 5 -7 10 -4 6 3 10 8 10 11 0 2 -4 4 -10 4 -5 0 -10
-5 -10 -11z"/>
<path d="M5540 1889 c0 -6 -9 -8 -22 -4 -20 5 -21 5 -5 -5 10 -7 25 -9 33 -6
16 6 19 26 4 26 -5 0 -10 -5 -10 -11z"/>
<path d="M5595 1875 c17 -7 24 -14 16 -14 -8 -1 -12 -3 -9 -6 3 -3 12 -3 21 1
14 5 14 8 2 20 -7 8 -24 14 -37 14 -21 -1 -20 -2 7 -15z"/>
<path d="M5705 1880 c-19 -8 -19 -9 2 -9 12 -1 25 4 28 9 7 12 -2 12 -30 0z"/>
<path d="M5664 1869 c-3 -6 3 -20 14 -31 14 -14 22 -17 27 -8 4 7 -1 13 -13
17 -13 3 -18 11 -15 19 6 17 -3 19 -13 3z"/>
<path d="M5710 1800 c0 -5 5 -10 10 -10 6 0 10 5 10 10 0 6 -4 10 -10 10 -5 0
-10 -4 -10 -10z"/>
<path d="M5597 1793 c-3 -5 12 -8 34 -9 21 0 36 3 33 8 -6 10 -61 11 -67 1z"/>
<path d="M2460 1040 c0 -5 5 -10 10 -10 6 0 10 5 10 10 0 6 -4 10 -10 10 -5 0
-10 -4 -10 -10z"/>
<path d="M4260 730 c0 -5 5 -10 10 -10 6 0 10 5 10 10 0 6 -4 10 -10 10 -5 0
-10 -4 -10 -10z"/>
<path d="M3010 4259 c-25 -15 -51 -33 -58 -39 -7 -6 -17 -8 -22 -5 -6 3 -10 1
-10 -4 0 -6 -15 -18 -32 -26 -18 -8 -60 -33 -93 -55 -33 -22 -68 -43 -77 -46
-10 -4 -18 -11 -18 -16 0 -5 16 0 35 12 32 20 38 21 53 7 10 -8 79 -24 164
-38 l147 -23 85 40 c47 21 85 42 86 46 0 4 -12 10 -27 14 -16 3 -54 12 -86 20
-32 8 -67 14 -77 14 -10 0 -20 6 -22 13 -3 6 -27 17 -54 23 -47 10 -48 11 -26
23 20 10 26 10 35 -2 7 -8 28 -17 47 -20 19 -4 79 -15 133 -27 124 -25 156
-25 218 1 56 24 61 34 22 42 -16 4 -86 19 -158 35 -196 44 -212 45 -265 11z
m-11 -75 c2 -2 -13 -4 -35 -4 -28 0 -59 -12 -108 -40 -38 -22 -71 -38 -73 -36
-3 2 17 17 44 32 26 15 61 35 78 45 25 15 77 17 94 3z m38 -10 c-3 -3 -12 -4
-19 -1 -8 3 -5 6 6 6 11 1 17 -2 13 -5z"/>
<path d="M3280 4130 c20 -13 43 -13 35 0 -3 6 -16 10 -28 10 -18 0 -19 -2 -7
-10z"/>
<path d="M3373 4113 c9 -2 23 -2 30 0 6 3 -1 5 -18 5 -16 0 -22 -2 -12 -5z"/>
<path d="M2628 4083 c7 -3 16 -2 19 1 4 3 -2 6 -13 5 -11 0 -14 -3 -6 -6z"/>
<path d="M2680 4040 c-8 -5 -11 -12 -8 -16 12 -11 200 -94 214 -94 19 0 144
63 144 72 0 4 -10 8 -22 9 -13 0 -30 2 -38 4 -155 32 -264 42 -290 25z"/>
<path d="M4198 4033 c6 -2 18 -2 25 0 6 3 1 5 -13 5 -14 0 -19 -2 -12 -5z"/>
<path d="M2014 3991 c-18 -16 -40 -33 -50 -39 -11 -6 -16 -14 -12 -17 7 -8
107 65 108 78 0 14 -15 6 -46 -22z"/>
<path d="M2051 3989 c-19 -16 -22 -22 -12 -29 8 -4 10 -13 7 -19 -4 -6 -3 -11
3 -11 5 0 11 5 13 12 3 9 40 3 131 -21 l127 -32 56 31 c30 18 53 34 51 37 -5
5 -312 53 -337 53 -8 -1 -26 -10 -39 -21z"/>
<path d="M2610 3991 c0 -10 24 -21 43 -21 7 0 3 7 -7 15 -22 17 -36 19 -36 6z"/>
<path d="M1469 3956 c-16 -16 -29 -34 -29 -38 0 -16 47 -27 198 -43 l154 -17
31 29 c18 15 34 29 36 31 13 7 -24 15 -183 41 l-177 27 -30 -30z"/>
<path d="M1950 3969 c0 -5 5 -7 10 -4 6 3 10 8 10 11 0 2 -4 4 -10 4 -5 0 -10
-5 -10 -11z"/>
<path d="M4096 3973 c-3 -4 -14 -7 -24 -8 -28 -3 -192 -59 -192 -66 0 -10 107
-29 161 -29 40 0 50 4 60 23 6 12 21 32 32 45 18 19 18 22 4 22 -9 0 -17 5
-17 10 0 11 -13 13 -24 3z"/>
<path d="M1919 3943 c-13 -16 -12 -17 4 -4 9 7 17 15 17 17 0 8 -8 3 -21 -13z"/>
<path d="M2500 3932 c0 -5 43 -26 96 -47 53 -22 99 -45 101 -53 4 -10 10 -9
27 6 11 11 39 29 61 40 47 24 51 22 -111 47 -112 17 -174 19 -174 7z"/>
<path d="M1925 3918 c-5 -5 -26 -22 -45 -38 -19 -16 -30 -29 -25 -29 13 0 91
66 85 72 -3 3 -9 0 -15 -5z"/>
<path d="M1931 3892 c-19 -16 -31 -33 -28 -39 4 -6 44 -14 89 -18 46 -3 109
-11 141 -16 54 -9 62 -8 103 16 24 14 44 29 44 34 0 4 -62 15 -138 25 -75 9
-146 19 -157 22 -13 3 -32 -5 -54 -24z"/>
<path d="M648 3872 c-31 -20 -57 -40 -58 -43 0 -13 104 -19 112 -6 7 11 12 88
6 86 -2 0 -29 -17 -60 -37z"/>
<path d="M1405 3876 c-12 -8 -16 -20 -12 -35 4 -17 -1 -24 -29 -36 -19 -8 -34
-19 -34 -24 0 -11 4 -13 130 -36 47 -9 98 -20 114 -25 23 -8 36 -5 68 14 22
13 36 26 31 29 -4 2 -57 10 -118 17 -127 13 -145 17 -145 32 0 7 15 8 43 4 23
-3 58 -8 77 -11 19 -3 63 -10 97 -16 59 -11 64 -10 92 12 51 41 52 40 -134 64
-66 8 -129 17 -141 20 -11 2 -29 -1 -39 -9z"/>
<path d="M3725 3849 l-50 -19 54 6 c30 4 73 12 95 19 l41 13 -45 0 c-25 0 -67
-8 -95 -19z"/>
<path d="M4148 3863 c7 -3 16 -2 19 1 4 3 -2 6 -13 5 -11 0 -14 -3 -6 -6z"/>
<path d="M2363 3850 c-13 -5 -23 -12 -23 -16 0 -8 41 -44 50 -44 4 0 42 -5 86
-11 75 -10 82 -9 134 15 62 29 60 30 -70 46 -52 6 -108 13 -125 15 -16 3 -40
0 -52 -5z"/>
<path d="M1801 3818 c-13 -21 -13 -22 2 -10 11 9 21 10 34 4 10 -5 67 -24 126
-41 l108 -32 39 22 c22 13 40 26 40 29 0 8 -254 36 -293 32 -17 -1 -26 2 -22
8 3 5 0 10 -7 10 -7 0 -19 -10 -27 -22z"/>
<path d="M2309 3813 c-13 -16 -12 -17 4 -4 9 7 17 15 17 17 0 8 -8 3 -21 -13z"/>
<path d="M3525 3779 c-13 -6 -4 -7 30 -3 28 4 52 8 54 10 9 8 -65 2 -84 -7z"/>
<path d="M1700 3739 l-35 -30 37 23 c21 13 38 26 38 31 0 10 -2 9 -40 -24z"/>
<path d="M2352 3740 c50 -26 60 -28 90 -18 40 13 59 28 36 28 -9 0 -20 -4 -23
-10 -9 -15 -25 -12 -25 4 0 15 -43 26 -99 26 l-36 -1 57 -29z"/>
<path d="M1751 3746 c2 -2 53 -18 113 -36 108 -31 109 -31 143 -13 18 9 33 20
33 23 0 4 -51 12 -114 18 -115 12 -183 15 -175 8z"/>
<path d="M2245 3681 c57 -28 61 -28 90 -13 l30 16 -40 7 c-22 3 -62 9 -90 13
l-50 6 60 -29z"/>
<path d="M1630 3684 c0 -8 5 -12 10 -9 6 3 10 10 10 16 0 5 -4 9 -10 9 -5 0
-10 -7 -10 -16z"/>
<path d="M1670 3687 c3 -3 53 -18 112 -33 94 -24 110 -26 133 -14 37 20 31 27
-27 33 -101 12 -223 20 -218 14z"/>
<path d="M2113 3640 c11 -7 24 -13 30 -14 7 -1 22 -7 34 -14 30 -16 44 -15 73
8 l25 20 -50 0 c-27 0 -68 3 -90 6 -33 4 -37 3 -22 -6z"/>
<path d="M1690 3630 c0 -5 5 -10 11 -10 5 0 7 5 4 10 -3 6 -8 10 -11 10 -2 0
-4 -4 -4 -10z"/>
<path d="M2258 3603 c7 -3 16 -2 19 1 4 3 -2 6 -13 5 -11 0 -14 -3 -6 -6z"/>
<path d="M2120 3580 c19 -13 30 -13 30 0 0 6 -10 10 -22 10 -19 0 -20 -2 -8
-10z"/>
<path d="M4430 3510 c0 -5 9 -10 20 -10 11 0 20 5 20 10 0 6 -9 10 -20 10 -11
0 -20 -4 -20 -10z"/>
<path d="M4434 3469 c-10 -17 13 -36 27 -22 12 12 4 33 -11 33 -5 0 -12 -5
-16 -11z"/>
<path d="M2080 3311 c0 -19 23 -23 93 -15 l72 8 -45 7 c-65 11 -120 10 -120 0z"/>
<path d="M940 3276 c0 -9 30 -14 35 -6 4 6 -3 10 -14 10 -12 0 -21 -2 -21 -4z"/>
<path d="M4557 3035 c-4 -12 -41 -59 -82 -105 -77 -87 -125 -166 -125 -207 0
-29 14 -30 28 0 6 12 51 66 100 120 91 100 103 123 92 182 -5 26 -7 27 -13 10z"/>
<path d="M1358 3033 c7 -3 16 -2 19 1 4 3 -2 6 -13 5 -11 0 -14 -3 -6 -6z"/>
<path d="M819 3008 c-1 -2 -3 -15 -5 -30 -2 -21 2 -28 14 -28 15 -1 15 -2 -2
-15 -15 -12 -17 -22 -11 -64 5 -35 11 -51 22 -51 11 0 14 10 11 43 l-3 42 38
3 c20 2 37 8 37 13 0 6 -15 7 -37 3 -34 -6 -37 -6 -25 9 11 13 24 15 59 10 44
-6 45 -5 34 15 -11 20 -9 21 46 25 34 2 14 4 -49 5 -64 1 -108 6 -108 12 0 9
-18 15 -21 8z"/>
<path d="M1287 2986 c-16 -12 -17 -20 -9 -58 l10 -43 1 42 c1 23 8 48 17 57
19 20 6 20 -19 2z"/>
<path d="M1884 2955 c-24 -37 -12 -40 19 -5 19 21 23 30 12 30 -8 0 -22 -11
-31 -25z"/>
<path d="M1020 2951 c0 -6 17 -7 38 -4 51 8 53 13 4 13 -23 0 -42 -4 -42 -9z"/>
<path d="M1907 2921 c-37 -41 -48 -66 -25 -59 19 7 71 75 66 88 -2 7 -20 -6
-41 -29z"/>
<path d="M1125 2940 c-3 -5 3 -10 14 -10 12 0 21 5 21 10 0 6 -6 10 -14 10 -8
0 -18 -4 -21 -10z"/>
<path d="M1480 2935 c0 -7 -3 -21 -7 -31 -6 -16 -4 -16 20 2 32 23 34 39 7 41
-11 1 -20 -4 -20 -12z"/>
<path d="M1542 2869 c2 -69 0 -86 -11 -85 -8 1 -16 -5 -18 -11 -6 -18 22 -16
41 2 9 10 13 27 10 48 -2 17 -6 51 -7 74 -6 81 -19 58 -15 -28z"/>
<path d="M1667 2898 c-36 -46 -34 -53 4 -18 17 15 29 34 27 41 -3 8 -15 -1
-31 -23z"/>
<path d="M3898 2895 c-6 -27 6 -43 18 -24 4 8 9 7 16 -2 6 -10 8 -5 6 16 -4
39 -33 46 -40 10z"/>
<path d="M1491 2883 c-12 -14 -19 -28 -16 -31 6 -7 34 17 46 40 15 28 -6 22
-30 -9z"/>
<path d="M2060 2885 c-13 -14 -21 -27 -18 -30 2 -3 15 6 28 20 13 14 21 27 18
30 -2 3 -15 -6 -28 -20z"/>
<path d="M1345 2890 c-3 -5 -2 -10 4 -10 5 0 13 5 16 10 3 6 2 10 -4 10 -5 0
-13 -4 -16 -10z"/>
<path d="M1370 2875 c-13 -14 -21 -27 -18 -30 2 -3 15 6 28 20 13 14 21 27 18
30 -2 3 -15 -6 -28 -20z"/>
<path d="M1908 2859 c-25 -27 -46 -69 -34 -69 11 0 75 75 76 88 0 18 -12 13
-42 -19z"/>
<path d="M1271 2866 c-9 -11 -9 -15 1 -18 10 -4 10 -9 -2 -24 -14 -17 -14 -18
1 -6 9 7 17 24 17 37 0 29 -2 30 -17 11z"/>
<path d="M1668 2845 c-39 -46 -35 -55 7 -15 33 32 44 51 28 49 -5 0 -20 -15
-35 -34z"/>
<path d="M1495 2840 c-16 -16 -26 -32 -24 -35 3 -3 18 9 34 25 16 16 26 32 24
35 -3 3 -18 -9 -34 -25z"/>
<path d="M1370 2835 c-13 -14 -21 -27 -18 -30 2 -3 15 6 28 20 13 14 21 27 18
30 -2 3 -15 -6 -28 -20z"/>
<path d="M1914 2799 l-41 -40 -212 -10 c-117 -6 -222 -14 -234 -19 -15 -6 -7
-7 28 -5 28 3 200 10 383 16 311 11 332 13 332 31 0 14 -8 18 -37 18 -21 1
-67 2 -101 3 -52 2 -66 -1 -73 -15 -5 -10 -19 -18 -31 -18 l-21 0 20 23 c17
19 37 57 30 57 -1 0 -21 -18 -43 -41z"/>
<path d="M4320 2815 c-23 -24 -27 -25 -171 -25 -154 0 -249 -14 -249 -37 0 -7
12 -16 26 -19 25 -6 160 -1 284 12 40 4 51 3 40 -5 -8 -6 -34 -11 -58 -11 -28
0 -41 -4 -37 -11 6 -8 75 -7 163 3 24 3 12 18 -15 18 -33 0 -26 9 10 12 15 1
27 6 27 10 0 4 -17 5 -37 3 l-38 -5 38 11 c26 8 39 18 43 35 9 35 1 38 -26 9z"/>
<path d="M1502 2807 c-12 -13 -22 -30 -22 -38 1 -15 50 35 50 52 0 13 -4 11
-28 -14z"/>
<path d="M1675 2800 c-32 -33 -17 -42 15 -10 17 17 27 40 17 40 -2 0 -16 -13
-32 -30z"/>
<path d="M1274 2798 c-16 -18 -17 -21 -2 -15 9 3 18 1 21 -6 2 -8 5 -8 11 1 4
7 3 12 -3 12 -6 0 -8 7 -5 15 8 21 0 19 -22 -7z"/>
<path d="M1375 2800 c-10 -11 -16 -22 -13 -25 3 -3 13 4 23 15 10 11 16 22 13
25 -3 3 -13 -4 -23 -15z"/>
<path d="M1598 2783 c6 -2 18 -2 25 0 6 3 1 5 -13 5 -14 0 -19 -2 -12 -5z"/>
<path d="M1705 2780 c-3 -5 -1 -10 4 -10 6 0 11 5 11 10 0 6 -2 10 -4 10 -3 0
-8 -4 -11 -10z"/>
<path d="M1083 2773 c9 -2 23 -2 30 0 6 3 -1 5 -18 5 -16 0 -22 -2 -12 -5z"/>
<path d="M1763 2773 c20 -2 54 -2 75 0 20 2 3 4 -38 4 -41 0 -58 -2 -37 -4z"/>
<path d="M3828 2763 c6 -2 18 -2 25 0 6 3 1 5 -13 5 -14 0 -19 -2 -12 -5z"/>
<path d="M829 2728 c0 -2 -3 -21 -5 -43 -7 -52 -34 -96 -113 -178 l-66 -69 50
7 c28 3 62 8 76 11 28 5 49 39 49 79 0 45 15 26 18 -23 2 -26 6 -50 10 -54 7
-7 116 0 457 26 109 9 145 14 100 15 -38 0 -167 -6 -285 -14 -236 -16 -304
-17 -230 -5 25 4 137 13 250 20 249 15 323 24 295 34 -11 4 -32 14 -47 22 -18
10 -29 11 -33 4 -4 -6 -3 -10 2 -9 4 1 15 1 23 -1 28 -3 -23 -19 -60 -18 -20
0 -26 2 -15 5 37 9 36 20 -2 21 -21 0 -116 1 -212 1 -96 0 -172 3 -170 6 3 2
79 7 170 11 145 5 278 20 211 23 -13 1 -21 5 -18 10 3 5 -40 7 -102 6 l-107
-4 105 12 c66 8 98 15 87 20 -10 4 -31 7 -45 8 l-27 1 25 7 c22 7 21 8 -16 13
-22 3 -83 4 -135 2 -62 -2 -86 -1 -69 5 20 7 14 10 -35 12 -33 1 -73 2 -90 1
-23 -2 -26 0 -15 8 8 5 71 10 140 11 78 1 116 4 100 9 -22 7 -269 14 -271 8z
m114 -55 c-13 -2 -33 -2 -45 0 -13 2 -3 4 22 4 25 0 35 -2 23 -4z m225 -20
c-10 -2 -26 -2 -35 0 -10 3 -2 5 17 5 19 0 27 -2 18 -5z"/>
<path d="M1275 2679 c-4 -6 -5 -12 -2 -15 2 -3 7 2 10 11 7 17 1 20 -8 4z"/>
<path d="M1308 2673 c7 -3 16 -2 19 1 4 3 -2 6 -13 5 -11 0 -14 -3 -6 -6z"/>
<path d="M1413 2663 c31 -2 83 -2 115 0 31 2 5 3 -58 3 -63 0 -89 -1 -57 -3z"/>
<path d="M1291 2646 c12 -10 59 -15 59 -6 0 5 -14 10 -32 10 -17 0 -29 -2 -27
-4z"/>
<path d="M1378 2643 c7 -3 16 -2 19 1 4 3 -2 6 -13 5 -11 0 -14 -3 -6 -6z"/>
<path d="M3710 2640 l-75 -6 95 -2 c64 -1 90 1 80 8 -8 5 -17 9 -20 8 -3 -1
-39 -4 -80 -8z"/>
<path d="M1358 2609 c23 -4 47 -11 52 -14 5 -3 32 -3 61 1 33 4 46 10 37 15
-18 12 -66 11 -73 -1 -3 -5 -12 -10 -18 -10 -7 0 -6 4 3 10 11 7 -3 9 -45 9
l-60 -1 43 -9z"/>
<path d="M1578 2603 c7 -3 16 -2 19 1 4 3 -2 6 -13 5 -11 0 -14 -3 -6 -6z"/>
<path d="M1493 2553 c15 -2 37 -2 50 0 12 2 0 4 -28 4 -27 0 -38 -2 -22 -4z"/>
<path d="M1778 2543 c12 -2 30 -2 40 0 9 3 -1 5 -23 4 -22 0 -30 -2 -17 -4z"/>
<path d="M1543 2503 c15 -2 39 -2 55 0 15 2 2 4 -28 4 -30 0 -43 -2 -27 -4z"/>
<path d="M1695 2491 c-49 -3 -85 -9 -78 -14 6 -4 18 -4 27 -1 9 3 16 1 16 -4
0 -6 -10 -12 -22 -14 -13 -2 -21 -7 -18 -13 3 -5 10 -8 15 -6 13 4 19 5 75 2
31 -1 40 -4 31 -10 -11 -7 -4 -14 26 -29 21 -11 45 -28 52 -36 16 -19 49 -20
242 -4 138 11 146 13 125 28 -53 39 -67 41 -353 49 -13 1 -23 5 -23 10 0 5 14
9 30 9 17 -1 33 2 37 5 3 4 -16 8 -43 8 -29 1 -38 4 -21 6 15 2 27 9 27 14 0
5 -12 8 -27 7 -16 -1 -68 -4 -118 -7z m470 -101 c4 -7 -3 -8 -22 -4 -38 9 -42
14 -10 14 14 0 29 -5 32 -10z"/>
<path d="M1415 2475 c-11 -2 -200 -14 -420 -26 -220 -12 -403 -25 -407 -28 -6
-6 19 -171 28 -180 4 -4 317 20 569 44 263 25 489 45 558 49 77 4 91 11 53 26
-34 13 -49 13 -41 0 10 -16 -4 -12 -56 16 -27 15 -46 31 -42 37 3 6 1 7 -5 3
-7 -4 -28 4 -48 17 -21 15 -30 27 -23 29 9 3 7 7 -5 11 -11 5 -15 3 -10 -5 5
-8 2 -9 -12 -3 -20 9 -106 15 -139 10z m142 -31 c-3 -3 -12 -4 -19 -1 -8 3 -5
6 6 6 11 1 17 -2 13 -5z"/>
<path d="M1703 2389 c39 -21 55 -20 42 1 -4 6 -13 9 -21 6 -7 -3 -16 -1 -19 4
-4 6 -14 10 -23 10 -9 -1 0 -10 21 -21z"/>
<path d="M2165 2344 c-16 -2 -79 -6 -138 -10 -86 -5 -106 -9 -97 -19 6 -7 24
-15 40 -19 36 -7 130 -72 130 -90 0 -8 -56 -14 -65 -7 -12 10 -45 22 -45 17 0
-2 18 -15 39 -29 45 -30 95 -33 151 -9 19 8 48 16 63 17 15 2 31 6 35 10 4 4
-2 6 -13 5 -34 -4 -46 0 -40 10 4 6 4 19 0 28 -6 16 -7 16 -20 -1 -11 -16 -13
-16 -19 -1 -4 11 -13 14 -31 10 -17 -4 -23 -3 -20 6 3 8 25 14 55 14 28 1 57
7 65 14 8 6 19 9 24 6 5 -4 12 -2 16 4 4 6 -5 10 -19 10 -14 0 -25 3 -25 8 5
32 -2 34 -86 26z m-59 -89 c-9 -9 -16 -13 -16 -8 0 12 22 34 28 28 2 -2 -3
-11 -12 -20z m91 -41 c-3 -3 -12 -4 -19 -1 -8 3 -5 6 6 6 11 1 17 -2 13 -5z"/>
<path d="M3691 2346 c12 -10 60 -16 54 -6 -3 5 -18 10 -32 10 -15 0 -24 -2
-22 -4z"/>
<path d="M1885 2275 c72 -46 108 -59 66 -25 -13 11 -18 20 -12 20 7 0 9 5 6
11 -4 6 -13 8 -21 5 -8 -3 -14 -1 -14 4 0 6 -11 10 -25 10 -14 0 -25 5 -25 10
0 6 -10 10 -22 10 -17 0 -4 -12 47 -45z"/>
<path d="M3103 2303 c9 -2 15 -9 12 -14 -3 -5 1 -6 9 -3 26 10 18 24 -11 23
-18 -1 -21 -3 -10 -6z"/>
<path d="M2363 2199 c14 -8 22 -8 30 0 8 8 3 11 -18 11 -26 -1 -28 -2 -12 -11z"/>
<path d="M3142 2186 c27 -14 59 -20 88 -16 20 3 -58 28 -90 29 l-25 1 27 -14z"/>
<path d="M2220 2165 c0 -18 17 -28 25 -15 3 5 18 7 33 4 40 -10 23 2 -20 14
-30 8 -38 8 -38 -3z"/>
<path d="M3235 2146 c-11 -8 -15 -16 -9 -16 5 0 15 5 22 12 9 9 15 9 24 0 7
-7 23 -12 37 -12 33 0 16 18 -24 25 -19 4 -37 1 -50 -9z"/>
<path d="M2142 2143 c-22 -4 -22 -5 10 -28 87 -64 158 -86 158 -51 0 6 9 0 19
-13 10 -13 23 -21 30 -17 7 5 1 16 -17 32 -17 17 -21 24 -9 20 9 -3 17 -1 17
4 0 6 -6 10 -13 10 -7 0 -18 9 -25 21 -7 12 -16 18 -19 15 -4 -3 2 -15 12 -26
16 -18 17 -20 1 -26 -11 -4 -24 1 -37 15 -11 11 -28 21 -38 21 -10 0 -24 7
-31 15 -13 15 -17 16 -58 8z m76 -40 c20 -15 42 -31 47 -37 15 -14 -68 35 -85
51 -25 23 0 14 38 -14z"/>
<path d="M2430 2141 c0 -5 -25 -8 -56 -6 -66 4 -69 -13 -6 -32 38 -11 43 -10
52 8 6 10 18 19 26 19 8 0 12 5 9 10 -8 13 -25 13 -25 1z"/>
<path d="M2544 2142 c5 -8 66 -4 66 4 0 2 -16 4 -36 4 -19 0 -33 -4 -30 -8z"/>
<path d="M2815 2139 c7 -11 99 -8 111 4 4 4 -21 7 -55 7 -41 0 -60 -4 -56 -11z"/>
<path d="M2496 2125 c-4 -12 -1 -16 11 -13 18 3 21 20 5 26 -5 1 -12 -4 -16
-13z"/>
<path d="M2450 2110 c0 -5 5 -10 11 -10 5 0 7 5 4 10 -3 6 -8 10 -11 10 -2 0
-4 -4 -4 -10z"/>
<path d="M3391 2106 c2 -2 20 -6 39 -10 25 -4 31 -3 20 4 -14 9 -69 15 -59 6z"/>
<path d="M3518 2093 c-19 -3 -25 -9 -21 -19 4 -11 0 -15 -13 -14 -10 1 -23 1
-29 0 -5 -1 -44 -2 -85 -1 -99 2 -120 -12 -43 -28 44 -8 73 -8 114 0 29 6 96
11 147 10 50 0 92 2 92 4 0 2 -7 11 -16 20 -12 12 -29 15 -73 11 -31 -3 -48
-3 -38 0 9 3 17 10 17 15 0 9 -4 9 -52 2z"/>
<path d="M2440 2063 c-9 -4 8 -12 40 -19 75 -18 84 -18 68 0 -7 7 -18 12 -24
9 -7 -2 -15 0 -19 6 -7 12 -40 13 -65 4z"/>
<path d="M3838 2053 c6 -2 18 -2 25 0 6 3 1 5 -13 5 -14 0 -19 -2 -12 -5z"/>
<path d="M3035 2040 c3 -5 13 -10 21 -10 8 0 12 5 9 10 -3 6 -13 10 -21 10 -8
0 -12 -4 -9 -10z"/>
<path d="M2310 2020 c32 -24 296 -183 321 -192 12 -5 19 -3 19 5 0 7 -16 19
-35 26 -19 7 -35 19 -35 27 0 8 -4 13 -9 10 -11 -7 -53 8 -72 26 -8 7 -32 21
-53 31 -22 10 -63 34 -92 53 -54 36 -86 46 -44 14z"/>
<path d="M3146 1951 c-4 -5 3 -7 14 -4 23 6 26 13 6 13 -8 0 -17 -4 -20 -9z"/>
<path d="M2930 1920 c0 -5 4 -10 9 -10 6 0 13 5 16 10 3 6 -1 10 -9 10 -9 0
-16 -4 -16 -10z"/>
<path d="M3381 1875 c10 -9 107 -16 112 -8 3 5 -22 10 -56 11 -33 2 -59 0 -56
-3z"/>
<path d="M3568 1848 c5 -5 16 -8 23 -6 8 3 3 7 -10 11 -17 4 -21 3 -13 -5z"/>
<path d="M3665 1826 c11 -8 24 -12 28 -9 11 7 -12 23 -32 23 -11 0 -9 -4 4
-14z"/>
<path d="M3196 1813 c-6 -14 -5 -15 5 -6 7 7 10 15 7 18 -3 3 -9 -2 -12 -12z"/>
<path d="M3240 1826 c0 -2 7 -7 16 -10 8 -3 12 -2 9 4 -6 10 -25 14 -25 6z"/>
<path d="M3306 1821 c-3 -5 1 -11 9 -14 9 -4 12 -1 8 9 -6 16 -10 17 -17 5z"/>
<path d="M3900 1794 c0 -8 5 -12 10 -9 6 3 10 10 10 16 0 5 -4 9 -10 9 -5 0
-10 -7 -10 -16z"/>
<path d="M2765 1780 c3 -5 8 -10 11 -10 2 0 4 5 4 10 0 6 -5 10 -11 10 -5 0
-7 -4 -4 -10z"/>
<path d="M3150 1771 c0 -11 31 -24 39 -16 3 3 -1 10 -9 15 -19 12 -30 12 -30
1z"/>
<path d="M2655 1760 c-16 -4 -24 -8 -17 -9 6 0 12 -6 12 -12 0 -5 -4 -7 -10
-4 -6 3 -7 -1 -3 -10 4 -12 8 -13 13 -5 6 9 14 6 29 -9 11 -11 23 -21 25 -21
3 0 22 -10 43 -22 20 -12 42 -23 48 -24 5 -1 24 -5 40 -9 29 -7 29 -7 10 9
-20 17 -19 17 8 13 15 -2 27 -3 27 -2 0 4 -188 115 -192 114 -2 -1 -16 -5 -33
-9z"/>
<path d="M3295 1720 c-3 -5 -2 -10 4 -10 5 0 13 5 16 10 3 6 2 10 -4 10 -5 0
-13 -4 -16 -10z"/>
<path d="M3238 1713 c7 -3 16 -2 19 1 4 3 -2 6 -13 5 -11 0 -14 -3 -6 -6z"/>
<path d="M3283 1693 c9 -2 23 -2 30 0 6 3 -1 5 -18 5 -16 0 -22 -2 -12 -5z"/>
<path d="M2339 1652 c-22 -43 -22 -45 -11 -38 6 3 12 1 14 -6 3 -7 16 0 34 18
16 16 27 28 25 27 -3 -2 -14 3 -26 11 -21 14 -23 13 -36 -12z m34 2 c3 -4 -1
-13 -9 -21 -8 -9 -18 -12 -22 -8 -4 4 -1 10 6 12 6 3 10 9 6 14 -6 10 9 12 19
3z"/>
<path d="M3247 1673 c-7 -11 4 -23 33 -37 12 -6 12 -5 -1 6 -9 7 -18 20 -21
28 -3 9 -7 10 -11 3z"/>
<path d="M3420 1664 c0 -6 7 -11 15 -11 8 0 12 5 8 10 -3 5 4 6 17 2 15 -5 20
-4 16 4 -9 14 -56 10 -56 -5z"/>
<path d="M2390 1614 c-11 -12 -11 -18 2 -30 14 -14 16 -14 21 0 4 9 2 16 -4
16 -6 0 -9 7 -5 15 7 19 2 19 -14 -1z"/>
<path d="M3340 1604 c-19 -7 -29 -13 -21 -13 8 -1 20 -9 27 -18 7 -10 14 -13
14 -6 0 6 7 18 15 27 21 21 7 25 -35 10z"/>
<path d="M3400 1610 c0 -5 5 -10 10 -10 6 0 10 5 10 10 0 6 -4 10 -10 10 -5 0
-10 -4 -10 -10z"/>
<path d="M2916 1587 c3 -10 9 -15 12 -12 3 3 0 11 -7 18 -10 9 -11 8 -5 -6z"/>
<path d="M2636 1553 c2 -7 -5 -13 -16 -13 -34 0 -22 -17 16 -24 42 -8 97 1 88
15 -3 6 -12 8 -20 5 -7 -3 -16 -1 -19 4 -4 6 -15 10 -25 10 -10 0 -20 3 -23 8
-2 4 -2 1 -1 -5z"/>
<path d="M3147 1563 c-4 -3 2 -13 14 -21 16 -11 23 -12 32 -3 9 9 8 11 -5 6
-13 -5 -18 -2 -18 9 0 16 -12 21 -23 9z"/>
<path d="M3400 1551 c0 -5 9 -13 20 -16 16 -5 18 -10 10 -24 -14 -27 1 -34 18
-10 14 20 13 23 -9 40 -27 21 -39 24 -39 10z"/>
<path d="M2989 1538 c9 -12 10 -18 2 -18 -6 0 -11 -4 -11 -9 0 -12 27 -21 45
-15 16 6 11 13 -30 44 -19 14 -19 14 -6 -2z"/>
<path d="M2395 1531 c-6 -11 9 -23 19 -14 9 9 7 23 -3 23 -6 0 -12 -4 -16 -9z"/>
<path d="M3505 1520 c-3 -5 -1 -10 4 -10 6 0 11 5 11 10 0 6 -2 10 -4 10 -3 0
-8 -4 -11 -10z"/>
<path d="M2450 1509 c0 -6 -7 -9 -14 -6 -10 4 -13 1 -9 -9 8 -21 29 -17 30 6
1 11 0 20 -3 20 -2 0 -4 -5 -4 -11z"/>
<path d="M2352 1498 c2 -6 15 -18 29 -27 l24 -15 -24 27 c-26 29 -35 34 -29
15z"/>
<path d="M2387 1499 c7 -7 15 -10 18 -7 3 3 -2 9 -12 12 -14 6 -15 5 -6 -5z"/>
<path d="M3470 1502 c0 -10 23 -22 41 -22 5 0 9 5 9 11 0 5 -5 7 -10 4 -6 -4
-17 -1 -25 5 -9 7 -15 8 -15 2z"/>
<path d="M3357 1483 c3 -7 6 -13 8 -13 2 0 5 6 8 13 3 8 -1 14 -8 14 -7 0 -11
-6 -8 -14z"/>
<path d="M2515 1480 c-3 -5 -1 -10 4 -10 6 0 11 5 11 10 0 6 -2 10 -4 10 -3 0
-8 -4 -11 -10z"/>
<path d="M2467 1454 c-3 -4 5 -16 19 -26 33 -26 41 -18 11 10 -13 12 -26 19
-30 16z"/>
<path d="M3305 1450 c4 -6 11 -8 16 -5 14 9 11 15 -7 15 -8 0 -12 -5 -9 -10z"/>
<path d="M2748 1443 c7 -3 16 -2 19 1 4 3 -2 6 -13 5 -11 0 -14 -3 -6 -6z"/>
<path d="M2800 1439 c0 -5 5 -7 10 -4 6 3 10 8 10 11 0 2 -4 4 -10 4 -5 0 -10
-5 -10 -11z"/>
<path d="M3625 1401 c-3 -5 -1 -12 5 -16 5 -3 10 1 10 9 0 18 -6 21 -15 7z"/>
<path d="M2480 1385 c0 -8 -4 -15 -10 -15 -5 0 -10 -9 -10 -20 0 -11 -5 -29
-12 -39 -9 -14 -7 -23 7 -42 l17 -24 -5 28 c-3 18 0 26 7 24 6 -2 10 -11 8
-19 -1 -11 6 -15 23 -15 14 0 25 5 25 13 0 8 -6 11 -16 7 -14 -5 -14 -3 1 28
l16 34 -20 -25 c-22 -27 -28 -21 -11 11 13 23 7 25 -14 3 -9 -8 -16 -11 -16
-6 0 5 7 15 15 22 8 7 12 16 9 21 -3 5 0 9 5 9 6 0 11 5 11 10 0 6 -7 10 -15
10 -8 0 -15 -7 -15 -15z"/>
<path d="M3075 1390 c3 -5 13 -10 21 -10 8 0 12 5 9 10 -3 6 -13 10 -21 10 -8
0 -12 -4 -9 -10z"/>
<path d="M3162 1378 c3 -7 13 -15 24 -17 16 -3 17 -1 5 13 -16 19 -34 21 -29
4z"/>
<path d="M3680 1360 c0 -5 5 -10 10 -10 6 0 10 5 10 10 0 6 -4 10 -10 10 -5 0
-10 -4 -10 -10z"/>
<path d="M3 1340 c1 -11 7 -15 19 -12 28 7 30 19 4 24 -19 4 -24 1 -23 -12z"/>
<path d="M2560 1353 c0 -17 32 -25 44 -12 8 9 7 10 -5 6 -9 -3 -22 0 -28 6 -8
8 -11 8 -11 0z"/>
<path d="M3210 1353 c0 -5 12 -21 28 -35 21 -20 32 -24 50 -17 29 11 28 23 -2
17 -17 -4 -23 -1 -19 9 3 7 0 13 -6 13 -6 0 -11 -6 -11 -12 -1 -7 -10 -2 -20
11 -11 13 -20 19 -20 14z"/>
<path d="M3565 1350 c-16 -7 -17 -9 -3 -9 9 -1 20 4 23 9 7 11 7 11 -20 0z"/>
<path d="M2620 1340 c0 -5 5 -10 11 -10 5 0 7 5 4 10 -3 6 -8 10 -11 10 -2 0
-4 -4 -4 -10z"/>
<path d="M2536 1311 c-3 -5 3 -11 13 -14 14 -3 18 -1 14 9 -6 16 -19 18 -27 5z"/>
<path d="M3210 1316 c0 -2 8 -10 18 -17 15 -13 16 -12 3 4 -13 16 -21 21 -21
13z"/>
<path d="M3395 1290 c3 -5 8 -10 11 -10 2 0 4 5 4 10 0 6 -5 10 -11 10 -5 0
-7 -4 -4 -10z"/>
<path d="M3020 1276 c0 -3 5 -16 11 -29 10 -23 69 -54 69 -36 0 5 -6 9 -12 9
-10 0 -10 2 -1 8 8 5 9 13 3 22 -7 10 -10 11 -10 3 0 -7 -9 -13 -20 -13 -11 0
-20 6 -20 14 0 8 -4 18 -10 21 -5 3 -10 4 -10 1z"/>
<path d="M3120 1270 c0 -5 5 -10 10 -10 6 0 10 5 10 10 0 6 -4 10 -10 10 -5 0
-10 -4 -10 -10z"/>
<path d="M2985 1260 c4 -6 11 -8 16 -5 14 9 11 15 -7 15 -8 0 -12 -5 -9 -10z"/>
<path d="M2500 1250 c0 -5 5 -10 11 -10 5 0 7 5 4 10 -3 6 -8 10 -11 10 -2 0
-4 -4 -4 -10z"/>
<path d="M3100 1256 c0 -2 7 -9 15 -16 9 -7 15 -8 15 -2 0 5 -7 12 -15 16 -8
3 -15 4 -15 2z"/>
<path d="M3333 1229 c-6 -16 -8 -29 -5 -29 11 0 31 49 23 54 -4 3 -12 -8 -18
-25z"/>
<path d="M3010 1220 c0 -5 5 -10 10 -10 6 0 10 5 10 10 0 6 -4 10 -10 10 -5 0
-10 -4 -10 -10z"/>
<path d="M3380 1220 c0 -5 5 -10 11 -10 6 0 9 -9 6 -20 -3 -10 1 -24 8 -30 10
-8 12 -4 11 17 -1 16 -5 34 -9 41 -10 14 -27 16 -27 2z"/>
<path d="M3480 1220 c0 -5 5 -10 10 -10 6 0 10 5 10 10 0 6 -4 10 -10 10 -5 0
-10 -4 -10 -10z"/>
<path d="M3446 1210 c6 -8 13 -22 16 -30 3 -9 7 -10 11 -3 4 6 -3 19 -16 29
-12 11 -17 12 -11 4z"/>
<path d="M3241 1186 c-1 -22 3 -27 15 -22 9 3 20 6 25 6 6 0 8 4 4 10 -3 5
-12 7 -19 4 -8 -3 -16 2 -19 13 -3 11 -5 8 -6 -11z"/>
<path d="M2639 1187 c15 -19 8 -22 -20 -6 -18 9 -19 8 -9 -8 7 -10 22 -19 36
-19 20 -2 22 1 14 17 -6 10 -16 21 -23 25 -8 5 -7 2 2 -9z"/>
<path d="M3358 1193 c7 -3 16 -2 19 1 4 3 -2 6 -13 5 -11 0 -14 -3 -6 -6z"/>
<path d="M3198 1183 c7 -3 16 -2 19 1 4 3 -2 6 -13 5 -11 0 -14 -3 -6 -6z"/>
<path d="M3426 1175 c4 -8 8 -15 10 -15 2 0 4 7 4 15 0 8 -4 15 -10 15 -5 0
-7 -7 -4 -15z"/>
<path d="M2570 1172 c0 -5 7 -15 15 -22 8 -7 15 -8 15 -2 0 5 -7 15 -15 22 -8
7 -15 8 -15 2z"/>
<path d="M3013 1163 c9 -9 20 -13 24 -9 4 4 1 11 -7 16 -25 16 -35 11 -17 -7z"/>
<path d="M2747 1159 c7 -7 15 -10 18 -7 3 3 -2 9 -12 12 -14 6 -15 5 -6 -5z"/>
<path d="M3310 1150 c0 -5 5 -10 11 -10 5 0 7 5 4 10 -3 6 -8 10 -11 10 -2 0
-4 -4 -4 -10z"/>
<path d="M2720 1129 c0 -5 5 -7 10 -4 6 3 10 8 10 11 0 2 -4 4 -10 4 -5 0 -10
-5 -10 -11z"/>
<path d="M3358 1133 c7 -3 16 -2 19 1 4 3 -2 6 -13 5 -11 0 -14 -3 -6 -6z"/>
<path d="M2750 1121 c0 -5 5 -13 10 -16 6 -3 10 -2 10 4 0 5 -4 13 -10 16 -5
3 -10 2 -10 -4z"/>
<path d="M3384 1114 c-18 -14 -18 -15 4 -4 12 6 22 13 22 15 0 8 -5 6 -26 -11z"/>
<path d="M3210 1109 c0 -5 5 -7 10 -4 6 3 10 8 10 11 0 2 -4 4 -10 4 -5 0 -10
-5 -10 -11z"/>
<path d="M3005 1080 c3 -5 8 -10 11 -10 2 0 4 5 4 10 0 6 -5 10 -11 10 -5 0
-7 -4 -4 -10z"/>
<path d="M3070 1070 c0 -5 5 -10 10 -10 6 0 10 5 10 10 0 6 -4 10 -10 10 -5 0
-10 -4 -10 -10z"/>
<path d="M2737 1059 c7 -7 15 -10 18 -7 3 3 -2 9 -12 12 -14 6 -15 5 -6 -5z"/>
<path d="M3160 1060 c-18 -12 -2 -12 25 0 13 6 15 9 5 9 -8 0 -22 -4 -30 -9z"/>
<path d="M2580 1056 c0 -3 14 -12 30 -21 17 -9 30 -11 30 -6 0 5 -8 11 -17 15
-10 3 -24 9 -30 12 -7 3 -13 3 -13 0z"/>
<path d="M3030 1050 c0 -5 5 -10 11 -10 5 0 7 5 4 10 -3 6 -8 10 -11 10 -2 0
-4 -4 -4 -10z"/>
<path d="M3097 1039 c-5 -20 17 -39 30 -25 4 3 1 6 -5 6 -7 0 -12 7 -12 16 0
8 5 12 10 9 6 -3 10 -1 10 4 0 20 -28 11 -33 -10z"/>
<path d="M3192 1045 c-23 -12 -23 -13 -3 -18 12 -3 19 -1 16 3 -3 5 1 10 7 13
7 2 11 6 8 9 -3 3 -15 -1 -28 -7z"/>
<path d="M3254 1039 c-9 -16 18 -30 33 -18 7 6 18 7 24 3 9 -5 7 -11 -5 -20
-18 -13 -14 -34 5 -34 6 0 7 5 4 11 -4 6 1 16 11 23 17 13 16 14 -5 25 -17 10
-26 10 -37 0 -13 -10 -18 -6 -15 14 2 11 -7 9 -15 -4z"/>
<path d="M2714 1029 c-3 -5 -2 -9 3 -8 4 1 19 -3 33 -9 14 -6 19 -11 13 -11
-7 -1 -13 -6 -13 -11 0 -7 7 -7 21 0 11 7 27 9 35 6 9 -3 12 -1 9 4 -3 6 -15
10 -25 10 -10 0 -21 4 -24 9 -9 13 -45 20 -52 10z"/>
<path d="M3140 1031 c0 -6 5 -13 10 -16 6 -3 10 1 10 9 0 9 -4 16 -10 16 -5 0
-10 -4 -10 -9z"/>
<path d="M2707 999 c7 -7 15 -10 18 -7 3 3 -2 9 -12 12 -14 6 -15 5 -6 -5z"/>
<path d="M2830 979 c0 -5 5 -7 10 -4 6 3 10 8 10 11 0 2 -4 4 -10 4 -5 0 -10
-5 -10 -11z"/>
<path d="M2790 976 c0 -2 7 -6 15 -10 8 -3 15 -1 15 4 0 6 -7 10 -15 10 -8 0
-15 -2 -15 -4z"/>
</g>
</svg>
